<svg width="327" height="327" viewBox="0 0 327 327" fill="none" xmlns="http://www.w3.org/2000/svg">
<path fill-rule="evenodd" clip-rule="evenodd" d="M100.498 317.677C66.8692 308.391 65.685 259.297 51.5048 227.043C41.5845 204.479 31.8734 182.668 30.3048 158.018C28.7397 133.424 34.5821 110.246 42.5913 86.9748C53.0332 56.6352 54.4976 15.0903 83.7617 2.69629C112.954 -9.66727 141.058 24.028 171.62 32.3282C201.488 40.4401 234.804 32.9076 260.295 50.641C290.47 71.6336 317.965 101.497 323.69 138.122C329.601 175.932 318.565 219.208 290.685 245.051C264.178 269.621 220.928 251.703 187.308 264.541C154.878 276.925 133.935 326.909 100.498 317.677Z" fill="#F3D89F"/>
<path fill-rule="evenodd" clip-rule="evenodd" d="M271.88 65.931C300.488 92.1615 323.085 127.095 326.553 166.025C329.887 203.457 314.265 241.155 290.021 269.606C268.931 294.356 234.687 298.84 204.209 309.601C179.049 318.484 154.678 328.646 128.099 326.775C99.9841 324.796 71.3267 317.885 50.391 298.774C29.0706 279.311 19.798 250.667 13.6223 222.276C7.20491 192.774 5.0906 162.529 14.5207 133.869C24.9632 102.132 42.2993 72.5014 69.2601 53.1825C98.603 32.1566 134.111 20.2136 169.984 22.4707C207.689 24.843 243.871 40.2508 271.88 65.931Z" fill="#FDD09F"/>
<path fill-rule="evenodd" clip-rule="evenodd" d="M50.3751 113.361C68.9806 91.3889 82.9619 60.3392 111.061 55.0674C139.011 49.8234 160.146 80.9672 187.813 87.575C224.519 96.3415 273.544 70.1343 297.542 99.6044C320.579 127.895 296.842 171.682 284.322 206.092C274.509 233.064 255.657 254.298 234.351 273.283C215.755 289.853 194.479 302.177 170.315 307.679C146.398 313.124 122.521 309.859 98.6563 304.181C70.0641 297.377 37.2933 294.867 18.9241 271.653C-0.100719 247.609 -3.25255 213.183 2.74946 182.975C8.3866 154.603 31.7741 135.327 50.3751 113.361Z" fill="#FCDFC2"/>
<path d="M241.116 210.875H249.629C250.026 210.875 250.422 211.053 250.661 211.371L254.966 216.788C255.661 217.661 255.046 218.931 253.934 218.931H241.116V210.875Z" fill="#F27B79"/>
<path d="M253.934 219.03H241.017V210.776H249.629C250.065 210.776 250.482 210.974 250.74 211.311L255.046 216.728C255.383 217.165 255.462 217.74 255.204 218.236C254.986 218.712 254.49 219.03 253.934 219.03ZM241.216 218.831H253.934C254.411 218.831 254.827 218.574 255.046 218.137C255.244 217.7 255.204 217.204 254.907 216.847L250.601 211.43C250.363 211.133 250.026 210.974 249.649 210.974H241.235V218.831H241.216Z" fill="#261134"/>
<path d="M154.386 176.825C154.386 177.56 154.981 178.135 155.696 178.135H159.982C160.716 178.135 161.291 177.54 161.291 176.825C161.291 176.091 160.696 175.516 159.982 175.516H155.696C154.981 175.496 154.386 176.091 154.386 176.825Z" fill="#261134"/>
<path d="M170.557 178.373H165.279V185.854H170.557V178.373Z" fill="#261134"/>
<path d="M156.966 233.852V190.12C156.966 186.409 159.982 183.393 163.692 183.393H183.137C186.848 183.393 189.864 186.409 189.864 190.12V230.399C189.864 233.812 192.622 236.57 196.035 236.57H201.491C204.904 236.57 207.662 233.812 207.662 230.399V212.799C207.662 212.799 207.523 207.482 204.249 206.708H237.862C237.862 206.708 251.831 218.097 254.768 236.451V238.475H156.966V233.852Z" fill="#FAD338"/>
<path d="M254.867 238.574H156.866V190.12C156.866 186.35 159.922 183.294 163.692 183.294H183.137C186.907 183.294 189.963 186.35 189.963 190.12V230.399C189.963 233.753 192.682 236.471 196.035 236.471H201.491C204.845 236.471 207.563 233.753 207.563 230.399V212.799C207.563 212.74 207.404 207.561 204.21 206.807L203.376 206.609H237.882L237.902 206.628C237.942 206.648 241.454 209.545 245.263 214.625C248.795 219.327 253.319 226.927 254.827 236.431L254.867 238.574ZM157.065 238.376H254.669V236.451C253.161 227.006 248.656 219.427 245.144 214.764C241.513 209.922 238.16 207.085 237.823 206.807H204.845C207.603 208.017 207.742 212.581 207.762 212.799V230.399C207.762 233.852 204.944 236.67 201.491 236.67H196.035C192.582 236.67 189.765 233.852 189.765 230.399V190.12C189.765 186.469 186.788 183.492 183.137 183.492H163.692C160.041 183.492 157.065 186.469 157.065 190.12V238.376Z" fill="#261134"/>
<path d="M170.22 183.373H167.839V227.344H170.22V183.373Z" fill="#261134"/>
<path d="M281.277 205.636H235.878V207.898H281.277V205.636Z" fill="#261134"/>
<path d="M230.263 238.594H198.714V245.083H230.263V238.594Z" fill="#261134"/>
<path d="M241.632 257.861C249.566 257.861 255.998 250.55 255.998 241.531C255.998 232.512 249.566 225.201 241.632 225.201C233.698 225.201 227.267 232.512 227.267 241.531C227.267 250.55 233.698 257.861 241.632 257.861Z" fill="#261134"/>
<path d="M244.053 251.432C249.215 251.432 253.399 246.671 253.399 240.797C253.399 234.923 249.215 230.161 244.053 230.161C238.892 230.161 234.707 234.923 234.707 240.797C234.707 246.671 238.892 251.432 244.053 251.432Z" fill="#FEFEFE"/>
<path d="M244.053 251.531C238.835 251.531 234.608 246.71 234.608 240.797C234.608 234.884 238.854 230.062 244.053 230.062C249.252 230.062 253.498 234.884 253.498 240.797C253.498 246.71 249.272 251.531 244.053 251.531ZM244.053 230.261C238.954 230.261 234.807 234.983 234.807 240.797C234.807 246.611 238.954 251.333 244.053 251.333C249.153 251.333 253.3 246.611 253.3 240.797C253.3 234.983 249.153 230.261 244.053 230.261Z" fill="#261134"/>
<path d="M239.112 240.856C239.112 243.218 240.224 245.321 243.775 245.321C245.859 245.321 246.633 243.218 246.633 240.856C246.633 238.495 245.839 236.57 243.775 236.57C240.224 236.57 239.112 238.475 239.112 240.856Z" fill="#261134"/>
<path d="M244.013 245.142C246.095 245.142 247.783 243.223 247.783 240.856C247.783 238.489 246.095 236.57 244.013 236.57C241.931 236.57 240.243 238.489 240.243 240.856C240.243 243.223 241.931 245.142 244.013 245.142Z" fill="#FEFEFE"/>
<path d="M244.013 245.222C241.89 245.222 240.144 243.257 240.144 240.836C240.144 238.416 241.87 236.451 244.013 236.451C246.156 236.451 247.883 238.416 247.883 240.836C247.883 243.257 246.136 245.222 244.013 245.222ZM244.013 236.67C241.989 236.67 240.343 238.555 240.343 240.856C240.343 243.158 241.989 245.043 244.013 245.043C246.037 245.043 247.684 243.158 247.684 240.856C247.684 238.555 246.037 236.67 244.013 236.67Z" fill="#261134"/>
<path d="M160.696 257.861C168.63 257.861 175.062 250.55 175.062 241.531C175.062 232.512 168.63 225.201 160.696 225.201C152.762 225.201 146.33 232.512 146.33 241.531C146.33 250.55 152.762 257.861 160.696 257.861Z" fill="#261134"/>
<path d="M163.117 251.432C168.278 251.432 172.462 246.671 172.462 240.797C172.462 234.923 168.278 230.161 163.117 230.161C157.955 230.161 153.771 234.923 153.771 240.797C153.771 246.671 157.955 251.432 163.117 251.432Z" fill="#FEFEFE"/>
<path d="M163.117 251.531C157.898 251.531 153.672 246.71 153.672 240.797C153.672 234.884 157.918 230.062 163.117 230.062C168.315 230.062 172.561 234.884 172.561 240.797C172.561 246.71 168.335 251.531 163.117 251.531ZM163.117 230.261C158.017 230.261 153.87 234.983 153.87 240.797C153.87 246.611 158.017 251.333 163.117 251.333C168.216 251.333 172.363 246.611 172.363 240.797C172.363 234.983 168.216 230.261 163.117 230.261Z" fill="#261134"/>
<path d="M158.176 240.856C158.176 243.218 159.287 245.142 162.839 245.142C164.922 245.142 165.696 243.218 165.696 240.856C165.696 238.495 164.902 236.57 162.839 236.57C159.287 236.57 158.176 238.475 158.176 240.856Z" fill="#261134"/>
<path d="M163.077 245.142C165.159 245.142 166.847 243.223 166.847 240.856C166.847 238.489 165.159 236.57 163.077 236.57C160.995 236.57 159.307 238.489 159.307 240.856C159.307 243.223 160.995 245.142 163.077 245.142Z" fill="#FEFEFE"/>
<path d="M163.077 245.222C160.954 245.222 159.208 243.257 159.208 240.836C159.208 238.416 160.934 236.451 163.077 236.451C165.22 236.451 166.946 238.416 166.946 240.836C166.946 243.257 165.2 245.222 163.077 245.222ZM163.077 236.67C161.053 236.67 159.406 238.555 159.406 240.856C159.406 243.158 161.053 245.043 163.077 245.043C165.101 245.043 166.748 243.158 166.748 240.856C166.748 238.555 165.081 236.67 163.077 236.67Z" fill="#261134"/>
<path d="M268.042 236.511H266.217C265.979 234.626 264.371 233.177 262.427 233.177H221.869V240.837H262.427C264.272 240.837 265.82 239.527 266.177 237.781H268.042V236.511Z" fill="#261134"/>
<path d="M260.84 238.475C260.84 238.475 263.36 218.276 239.767 212.78C231.255 210.795 211.71 209.506 216.095 238.475H260.84Z" fill="#FAD338"/>
<path d="M260.939 238.574H216.036L216.016 238.495C214.389 227.721 215.917 220.062 220.56 215.776C226.235 210.518 235.064 211.589 239.807 212.7C245.204 213.95 249.668 216.093 253.101 219.05C255.839 221.411 257.923 224.308 259.272 227.661C261.574 233.356 260.978 238.436 260.958 238.495L260.939 238.574ZM216.195 238.376H260.76C260.82 237.682 261.197 232.959 259.073 227.721C256.97 222.522 251.91 215.716 239.767 212.879C235.064 211.787 226.314 210.716 220.699 215.915C216.095 220.161 214.587 227.721 216.195 238.376Z" fill="#261134"/>
<path d="M206.472 207.898H236.057C239.132 207.898 241.632 205.398 241.632 202.323C241.632 199.069 238.854 196.509 235.62 196.767L206.135 199.108C203.853 199.287 202.087 201.192 202.087 203.493C202.087 205.914 204.051 207.898 206.472 207.898Z" fill="#261134"/>
<path d="M176.153 236.233H142.342C142.342 236.233 142.897 231.253 146.251 226.729C153.592 216.907 168.851 218.256 174.248 229.249C175.22 231.193 175.895 233.495 176.153 236.233Z" fill="#FAD338"/>
<path d="M176.272 236.332H142.243L142.262 236.213C142.262 236.154 142.858 231.153 146.191 226.669C149.664 222.006 155.219 219.546 161.053 220.082C166.847 220.617 171.808 224.03 174.367 229.209C175.379 231.292 176.034 233.634 176.272 236.213V236.332ZM142.461 236.134H176.034C175.796 233.634 175.161 231.332 174.169 229.308C171.649 224.189 166.748 220.816 161.013 220.3C155.259 219.764 149.763 222.205 146.33 226.808C143.314 230.876 142.58 235.38 142.461 236.134Z" fill="#261134"/>
<path d="M261.078 239.785H174.109V237.166H142.382V234.785H174.169C175.458 234.785 176.49 235.836 176.49 237.106V237.404H261.078V239.785Z" fill="#261134"/>
<path d="M200.063 252.623H194.249V250.242H199.249L210.44 241.71L211.869 243.595L200.063 252.623Z" fill="#261134"/>
<path d="M170.736 180.853H163.494C163.057 180.853 162.621 180.794 162.224 180.695C159.922 180.119 158.216 178.036 158.216 175.556C158.216 174.087 158.811 172.778 159.763 171.825C160.438 171.151 161.271 170.674 162.224 170.436C162.641 170.337 163.057 170.278 163.514 170.278H164.565C168.196 170.278 171.669 172.083 173.554 175.198C173.653 175.357 173.752 175.536 173.851 175.714C175.062 178.056 173.375 180.853 170.736 180.853Z" fill="#FAD338"/>
<path d="M170.736 180.953H163.494C163.057 180.953 162.621 180.893 162.184 180.794C159.783 180.199 158.097 178.056 158.097 175.556C158.097 174.107 158.652 172.758 159.684 171.746C160.378 171.051 161.251 170.555 162.184 170.317C162.621 170.218 163.057 170.159 163.494 170.159H164.545C168.276 170.159 171.748 172.063 173.613 175.139C173.712 175.317 173.812 175.476 173.911 175.655C174.506 176.766 174.486 178.095 173.831 179.187C173.157 180.298 172.006 180.953 170.736 180.953ZM163.494 170.377C163.077 170.377 162.64 170.436 162.244 170.536C161.331 170.754 160.498 171.23 159.823 171.905C158.851 172.877 158.295 174.186 158.295 175.575C158.295 177.976 159.922 180.04 162.224 180.615C162.64 180.715 163.057 180.774 163.474 180.774H170.716C171.927 180.774 173.018 180.159 173.633 179.107C174.248 178.076 174.288 176.825 173.712 175.774C173.613 175.595 173.514 175.437 173.415 175.258C171.589 172.242 168.176 170.377 164.525 170.377H163.494Z" fill="#261134"/>
<path d="M165.855 175.575C165.855 177.679 164.942 179.564 163.494 180.873H163.474C160.557 180.873 158.176 178.512 158.176 175.575C158.176 174.107 158.771 172.798 159.724 171.845C160.676 170.893 162.006 170.297 163.454 170.297H163.474C164.962 171.587 165.855 173.472 165.855 175.575Z" fill="#261134"/>
<path d="M164.407 175.575C164.407 177.599 163.573 179.405 162.224 180.715C159.922 180.139 158.216 178.056 158.216 175.575C158.216 174.107 158.811 172.798 159.763 171.845C160.438 171.17 161.271 170.694 162.224 170.456C163.573 171.726 164.407 173.552 164.407 175.575Z" fill="#FEFEFE"/>
<path d="M162.244 180.814L162.184 180.794C159.783 180.199 158.097 178.056 158.097 175.556C158.097 174.107 158.652 172.758 159.684 171.746C160.378 171.051 161.252 170.555 162.184 170.317L162.244 170.297L162.283 170.337C163.712 171.706 164.506 173.552 164.506 175.536C164.506 177.52 163.712 179.365 162.283 180.734L162.244 180.814ZM162.184 170.555C161.291 170.793 160.478 171.25 159.823 171.905C158.851 172.877 158.295 174.186 158.295 175.575C158.295 177.956 159.882 180 162.184 180.595C163.553 179.266 164.307 177.48 164.307 175.575C164.307 173.651 163.553 171.885 162.184 170.555Z" fill="#261134"/>
<path d="M177.859 176.032H173.951V177.639H177.859V176.032Z" fill="#FAD338"/>
<path d="M177.939 177.758H173.831V175.952H177.939V177.758ZM174.05 177.56H177.76V176.151H174.05V177.56Z" fill="#261134"/>
<path d="M172.482 175.496H174.05C174.784 175.496 175.359 176.091 175.359 176.806C175.359 177.54 174.764 178.115 174.05 178.115H172.482C171.748 178.115 171.173 177.52 171.173 176.806C171.173 176.091 171.748 175.496 172.482 175.496Z" fill="#261134"/>
<path d="M177.105 176.825C177.105 177.56 177.701 178.135 178.415 178.135H182.701C183.435 178.135 184.011 177.54 184.011 176.825C184.011 176.091 183.415 175.516 182.701 175.516H178.415C177.701 175.496 177.105 176.091 177.105 176.825Z" fill="#261134"/>
<path d="M247.922 233.396H228.556V234.507H247.922V233.396Z" fill="white"/>
<path d="M248.021 234.606H228.457V233.296H248.021V234.606ZM228.655 234.408H247.823V233.495H228.655V234.408Z" fill="black"/>
<path d="M247.922 230.459H228.556V231.57H247.922V230.459Z" fill="white"/>
<path d="M248.021 231.669H228.457V230.36H248.021V231.669ZM228.655 231.471H247.823V230.558H228.655V231.471Z" fill="black"/>
<path d="M247.922 227.542H228.556V228.653H247.922V227.542Z" fill="white"/>
<path d="M248.021 228.753H228.457V227.443H248.021V228.753ZM228.655 228.554H247.823V227.641H228.655V228.554Z" fill="black"/>
<path d="M218.437 252.603H177.76V253H218.437V252.603Z" fill="#261134"/>
<path d="M90.5536 114.144C96.6466 114.144 101.586 109.205 101.586 103.112C101.586 97.0187 96.6466 92.0794 90.5536 92.0794C84.4606 92.0794 79.5213 97.0187 79.5213 103.112C79.5213 109.205 84.4606 114.144 90.5536 114.144Z" fill="#FEFEFE"/>
<path d="M90.5536 114.263C84.4025 114.263 79.4221 109.263 79.4221 103.131C79.4221 96.9804 84.4224 92 90.5536 92C96.6849 92 101.685 97.0002 101.685 103.131C101.685 109.263 96.6849 114.263 90.5536 114.263ZM90.5536 92.1786C84.5216 92.1786 79.6205 97.0796 79.6205 103.112C79.6205 109.144 84.5216 114.045 90.5536 114.045C96.5857 114.045 101.487 109.144 101.487 103.112C101.487 97.0796 96.5857 92.1786 90.5536 92.1786Z" fill="#261134"/>
<path d="M88.6488 108.469L83.1525 103.151C82.7557 102.774 82.7557 102.159 83.1327 101.762C83.5097 101.366 84.1248 101.366 84.5216 101.743L88.6686 105.751L96.6055 98.1114C97.0024 97.7344 97.6175 97.7542 97.9945 98.1312C98.3715 98.5281 98.3516 99.1432 97.9746 99.5202L88.6488 108.469Z" fill="#1BA096"/>
<path d="M88.6488 108.608L83.0929 103.211C82.8945 103.012 82.7755 102.735 82.7755 102.457C82.7755 102.179 82.8747 101.901 83.0731 101.683C83.4898 101.266 84.1644 101.246 84.601 101.663L88.6686 105.612L96.5262 98.032C96.7246 97.8336 97.0024 97.7145 97.3 97.7344C97.5778 97.7344 97.8555 97.8534 98.054 98.0717C98.4706 98.5082 98.4509 99.1829 98.0342 99.5996L88.6488 108.608ZM83.8271 101.564C83.589 101.564 83.3707 101.643 83.1922 101.822C83.0334 101.981 82.9343 102.219 82.9541 102.437C82.9541 102.675 83.0533 102.893 83.212 103.052L88.6289 108.31L97.8555 99.421C98.0143 99.2622 98.1136 99.044 98.1334 98.8059C98.1334 98.5678 98.054 98.3495 97.8953 98.1908C97.7365 98.032 97.5182 97.9328 97.2801 97.913C97.042 97.913 96.8237 97.9923 96.665 98.1511L88.6686 105.85L84.462 101.762C84.2835 101.643 84.0454 101.564 83.8271 101.564Z" fill="#261134"/>
<path d="M248.875 99.4012H189.983V171.032H248.875V99.4012Z" fill="#CDCBCC"/>
<path d="M248.974 171.151H189.884V99.3218H248.974V171.151ZM190.082 170.952H248.776V99.5202H190.082V170.952Z" fill="#261134"/>
<path d="M237.247 129.522V105.79H248.895V104.481H237.247V99.421H235.938V104.481H221.215V99.421H219.905V105.79H235.938V128.212H221.215V116.743L204.17 99.4408H202.325L218.973 116.366H208.079L191.511 99.4408H190.003V99.7781L206.254 116.366H190.003V117.676H207.543L207.702 117.835V149.344C204.448 149.602 201.809 152.082 201.313 155.257H190.023V156.567H201.233C201.353 160.118 204.111 163.015 207.603 163.353V171.051H208.912V163.313C212.405 162.995 215.163 160.098 215.282 156.527H220.719L234.767 171.032H236.612L235.918 170.317L248.934 157.301V155.436L235.005 169.365L229.529 163.71L240.144 152.836V140.931H248.934V139.621H221.254V129.522H237.247ZM208.238 162.043C205.083 162.043 202.523 159.483 202.523 156.328C202.523 153.174 205.083 150.614 208.238 150.614C211.393 150.614 213.952 153.174 213.952 156.328C213.952 159.483 211.373 162.043 208.238 162.043ZM219.885 155.217H215.183C214.687 152.102 212.167 149.661 209.012 149.324V117.656H219.885V155.217ZM238.775 140.931V152.3L228.556 162.757L221.195 155.158V140.911H238.775V140.931Z" fill="white"/>
<path d="M234.053 143.689C237.57 143.689 240.422 140.837 240.422 137.32C240.422 133.802 237.57 130.95 234.053 130.95C230.535 130.95 227.683 133.802 227.683 137.32C227.683 140.837 230.535 143.689 234.053 143.689Z" fill="#261134"/>
<path d="M241.394 122.458C241.394 118.569 238.239 115.434 234.37 115.434C230.481 115.434 227.346 118.589 227.346 122.458C227.346 123.43 227.544 124.343 227.902 125.196C228.001 125.454 228.14 125.712 228.279 125.95L234.311 138.093L240.422 126.069C240.581 125.791 240.739 125.514 240.858 125.196C241.196 124.343 241.394 123.43 241.394 122.458ZM234.449 125.434C232.902 125.434 231.652 124.184 231.652 122.636C231.652 121.089 232.902 119.839 234.449 119.839C235.997 119.839 237.247 121.089 237.247 122.636C237.247 124.184 235.997 125.434 234.449 125.434Z" fill="#F27B79"/>
<path d="M234.311 138.312L228.179 125.99C228.04 125.732 227.902 125.494 227.802 125.236C227.425 124.363 227.247 123.43 227.247 122.458C227.247 118.529 230.441 115.334 234.37 115.334C238.299 115.334 241.493 118.529 241.493 122.458C241.493 123.41 241.315 124.343 240.938 125.216C240.819 125.513 240.66 125.811 240.501 126.089L234.311 138.312ZM234.37 115.533C230.54 115.533 227.445 118.648 227.445 122.458C227.445 123.39 227.624 124.303 227.981 125.156C228.08 125.394 228.199 125.652 228.338 125.89L234.291 137.855L240.303 126.01C240.482 125.732 240.62 125.434 240.739 125.156C241.097 124.303 241.275 123.39 241.275 122.458C241.295 118.648 238.2 115.533 234.37 115.533ZM234.449 125.533C232.862 125.533 231.553 124.244 231.553 122.636C231.553 121.029 232.842 119.739 234.449 119.739C236.057 119.739 237.346 121.029 237.346 122.636C237.346 124.244 236.037 125.533 234.449 125.533ZM234.449 119.938C232.961 119.938 231.751 121.148 231.751 122.636C231.751 124.125 232.961 125.335 234.449 125.335C235.938 125.335 237.148 124.125 237.148 122.636C237.148 121.148 235.938 119.938 234.449 119.938Z" fill="#261134"/>
<path d="M128.174 257.901H113.71C113.71 257.901 114.622 254.786 121.031 252.226L121.011 251.512L120.952 247.642H127.798L127.916 251.055L128.174 257.901Z" fill="#F27B79"/>
<path d="M128.294 258H113.591L113.63 257.881C113.67 257.762 114.622 254.706 120.952 252.166L120.892 247.563H127.936L128.294 258ZM113.848 257.802H128.075L127.718 247.742H121.071L121.131 252.285L121.071 252.305C115.515 254.547 114.106 257.206 113.848 257.802Z" fill="#261134"/>
<path d="M147.025 257.901H132.56C132.56 257.901 133.472 254.786 139.881 252.226L139.822 251.75L139.266 247.642H146.112L146.429 251.214L147.025 257.901Z" fill="#F27B79"/>
<path d="M147.144 258H132.421L132.46 257.881C132.5 257.762 133.453 254.706 139.782 252.166L139.167 247.543H146.211L147.144 258ZM132.699 257.802H146.925L146.033 247.742H139.385L140.001 252.285L139.921 252.305C134.345 254.547 132.956 257.206 132.699 257.802Z" fill="#261134"/>
<path d="M61.584 257.901H47.119L48.0515 250.658L48.4286 247.642H55.2742L54.4606 251.353L54.2622 253.02C60.9887 255.083 61.584 257.901 61.584 257.901Z" fill="#F27B79"/>
<path d="M61.7031 258H47L48.3295 247.543H55.3932L54.54 251.373L54.3615 252.94C60.9888 254.984 61.6634 257.762 61.6832 257.881L61.7031 258ZM47.2183 257.802H61.4451C61.2268 257.246 60.0165 254.885 54.2225 253.119L54.1432 253.099L54.3416 251.353L55.1353 247.761H48.508L47.2183 257.802Z" fill="#261134"/>
<path d="M78.2515 257.901H63.7866L64.1437 250.777L64.3025 247.642H71.148L70.9694 251.452L70.9298 252.801C77.3388 255.381 78.2515 257.901 78.2515 257.901Z" fill="#F27B79"/>
<path d="M78.3904 258H63.6675L64.2033 247.543H71.2472L71.0488 251.472L71.0091 252.762C77.3388 255.301 78.2912 257.782 78.3309 257.881L78.3904 258ZM63.8858 257.802H78.0928C77.7952 257.246 76.3268 255.083 70.89 252.901L70.8305 252.881L70.8702 251.452L71.0488 247.742H64.4017L63.8858 257.802Z" fill="#261134"/>
<path d="M116.805 115.751L126.865 113.489L127.956 117.319C128.234 117.12 128.512 117.001 128.77 117.001C129.96 117.001 130.198 118.43 130.198 118.43C130.536 119.978 129.524 120.93 129.067 121.605L132.52 132.657L123.968 133.986L123.234 126.922C115.872 130.633 116.805 115.751 116.805 115.751Z" fill="#FAD338"/>
<path d="M123.869 134.065L123.135 127.041C121.686 127.736 120.436 127.776 119.444 127.121C116.15 124.938 116.666 116.108 116.686 115.731V115.652L126.924 113.35L127.996 117.12C128.254 116.942 128.512 116.862 128.75 116.862C130 116.862 130.278 118.35 130.278 118.37C130.575 119.72 129.881 120.612 129.385 121.267C129.306 121.366 129.226 121.466 129.167 121.565L132.639 132.677L123.869 134.065ZM123.313 126.744L124.047 133.847L132.381 132.538L128.948 121.565L128.968 121.525C129.048 121.426 129.127 121.307 129.226 121.188C129.702 120.553 130.357 119.7 130.079 118.45C130.06 118.39 129.841 117.1 128.75 117.1C128.512 117.1 128.254 117.2 127.996 117.398L127.877 117.477L126.766 113.608L116.865 115.83C116.825 116.704 116.488 124.958 119.543 126.962C120.496 127.597 121.726 127.537 123.154 126.823L123.313 126.744Z" fill="#261134"/>
<path d="M113.789 111.426C114.245 111.326 115.396 111.426 116.091 112.001C116.051 111.922 116.011 111.842 115.972 111.763C114.94 108.667 119.285 110.969 121.587 111.426C122.063 111.525 123.115 111.664 123.115 111.664C130 110.096 129.306 117.12 129.306 117.12C127.5 116.862 126.964 119.323 126.964 119.323C125.119 118.45 124.543 117.2 124.484 116.664C122.698 117.477 118.115 119.025 114.325 116.287C111.725 114.402 112.638 111.644 113.789 111.426Z" fill="#261134"/>
<path d="M73.8267 140.852C73.8267 140.852 71.0289 135.633 70.7908 133.034L71.9615 127.319C71.9615 127.319 72.1005 121.843 64.8977 123.172C64.8977 123.172 64.9373 120.593 63.2309 119.978C63.2309 119.978 64.0643 121.426 63.7667 122.855C63.7667 122.855 62.3777 119.68 59.7585 121.347C59.7585 121.347 57.7346 122.458 58.2704 124.482C58.2704 124.482 58.2307 126.783 61.3856 126.823C61.3856 126.823 61.346 129.7 54.3814 133.609C54.3814 133.609 48.5874 136.387 49.0636 142.439C49.5398 148.491 54.9369 152.3 54.9369 152.3L74.7791 152.32L73.8267 140.852Z" fill="#261134"/>
<path d="M62.8142 143.074L63.6674 133.093C63.6674 133.093 62.1792 132.22 62.5562 130.514C62.5562 130.514 62.9134 129.145 64.2825 130.196L64.3221 127.776C64.3221 127.776 69.124 129.581 71.9218 126.863C71.9218 126.863 73.9456 136.308 69.6795 136.288L70.5923 144.225L62.8142 143.074Z" fill="#FAD338"/>
<path d="M70.6916 144.344L62.6952 143.173L63.5484 133.153C63.2706 132.974 62.0999 132.081 62.4372 130.494C62.4372 130.474 62.596 129.899 63.0722 129.74C63.3897 129.641 63.7468 129.72 64.1635 129.998L64.2032 127.637L64.3421 127.676C64.3818 127.696 69.1043 129.422 71.8425 126.783L71.9615 126.664L72.0012 126.843C72.0607 127.101 73.3504 133.252 71.4853 135.534C71.0487 136.07 70.4733 136.347 69.7788 136.367L70.6916 144.344ZM62.9135 142.994L70.4535 144.106L69.5408 136.189H69.6599C70.3543 136.189 70.9099 135.931 71.3266 135.415C72.9536 133.411 72.0211 128.093 71.8226 127.061C69.263 129.363 65.1755 128.172 64.3818 127.914L64.3421 130.395L64.1834 130.276C63.7667 129.958 63.4095 129.839 63.1317 129.938C62.7547 130.057 62.6159 130.553 62.6159 130.553C62.2587 132.18 63.6278 132.994 63.6873 133.034L63.7468 133.073V133.133L62.9135 142.994Z" fill="#261134"/>
<path d="M127.936 251.075L121.031 251.512L120.972 247.642H127.817L127.936 251.075Z" fill="#261134"/>
<path d="M146.429 251.214L139.822 251.75L139.266 247.642H146.112L146.429 251.214Z" fill="#261134"/>
<path d="M136.568 167.797L136.29 169.305L134.603 178.611L130.238 202.541L129.98 210.438L128.651 250.004H117.103L115.813 202.779L117.638 176.448L118.253 167.797H136.568Z" fill="#CDCBCC"/>
<path d="M128.75 250.103H117.003V250.004L115.714 202.779L118.154 167.698H136.687L130.337 202.561L128.75 250.103ZM117.202 249.904H128.571L130.159 202.541L136.469 167.896H118.372L115.912 202.799L117.202 249.904Z" fill="#261134"/>
<path d="M55.2743 247.642L54.4409 251.353L48.0319 250.658L48.4287 247.642H55.2743Z" fill="#261134"/>
<path d="M71.148 247.642L70.9693 251.472L64.1436 250.777L64.3024 247.642H71.148Z" fill="#261134"/>
<path d="M148.314 250.202H136.647L129.98 210.438L128.492 201.529L125.952 178.552L124.94 169.305H143.89L143.81 176.607L143.532 200.696L148.314 250.202Z" fill="#CDCBCC"/>
<path d="M148.414 250.301H136.548L136.528 250.222L128.373 201.549L124.801 169.206H143.969L143.612 200.696L148.414 250.301ZM136.727 250.103H148.195L143.433 200.715L143.79 169.404H125.039L128.591 201.509L136.727 250.103Z" fill="#261134"/>
<path d="M76.6642 196.727L73.6085 250.004H63.0524L63.4096 216.232L63.6278 196.965L62.1 179.107L61.5048 171.984L70.3544 171.845L75.3546 171.746L75.7713 179.742L76.6642 196.727Z" fill="#1BA096"/>
<path d="M73.6878 250.103H62.9531V250.004L63.5285 196.965L61.3856 171.885L75.4339 171.647L76.7633 196.727L73.6878 250.103ZM63.1516 249.904H73.5092L76.5649 196.727L75.2553 171.845L61.6039 172.083L63.727 196.965L63.1516 249.904Z" fill="#261134"/>
<path d="M143.89 169.305L143.81 176.607C140.516 177.699 137.421 178.333 134.603 178.611C131.369 178.949 128.452 178.849 125.952 178.532C122.202 178.076 119.345 177.123 117.658 176.429L118.253 167.777H136.568L136.29 169.285H143.89V169.305Z" fill="#261134"/>
<path d="M70.4733 171.012L70.3543 171.845L69.2232 180.08L66.227 201.787L63.4095 216.232L56.9012 249.686L47.2381 249.884L51.6827 200.735L52.9129 175.059L53.1312 170.535L70.4733 171.012Z" fill="#1BA096"/>
<path d="M47.119 249.984V249.865L51.5637 200.715L53.032 170.416L70.5725 170.893L66.3262 201.807L56.9805 249.785L47.119 249.984ZM53.2304 170.635L51.7819 200.735L47.3373 249.765L56.8218 249.567L66.1278 201.747L70.3543 171.091L53.2304 170.635Z" fill="#261134"/>
<path d="M74.5212 142.28L82.2199 152.3L92.9744 154.404V162.142L80.3746 160.952C79.5016 160.872 78.688 160.555 77.9737 160.059L72.9338 156.487L74.5212 142.28Z" fill="#31B8ED"/>
<path d="M93.0736 162.261L80.3548 161.051C79.4817 160.972 78.6285 160.654 77.8943 160.138L72.7949 156.527L74.422 142.022L82.2596 152.201L93.0538 154.324V162.261H93.0736ZM73.0131 156.448L78.0133 159.999C78.7078 160.495 79.5214 160.793 80.3746 160.872L92.8752 162.063V154.503L82.1604 152.4L82.1406 152.38L74.5807 142.558L73.0131 156.448Z" fill="#261134"/>
<path d="M123.472 131.446C123.472 131.446 124.96 134.958 131.647 128.033L143.116 132.26C144.743 132.974 145.894 134.462 146.191 136.208L147.997 146.407H141.727L144.624 173.671C144.624 173.671 136.171 175.913 129.702 176.052C119.027 176.29 116.666 174.385 116.666 174.385L117.142 164.702L117.222 142.677C117.103 139.542 118.412 137.181 120.277 134.641L123.472 131.446Z" fill="#1BA096"/>
<path d="M127.917 176.171C118.849 176.171 116.706 174.524 116.626 174.464L116.587 174.425L117.063 164.682L117.142 142.657C117.023 139.582 118.293 137.181 120.218 134.562L123.512 131.268L123.571 131.407C123.591 131.426 123.869 132.042 124.702 132.2C125.793 132.399 127.857 131.823 131.587 127.954L131.627 127.914L131.687 127.934L143.155 132.161C144.822 132.895 145.993 134.403 146.29 136.189L148.116 146.507H141.846L144.743 173.75L144.663 173.77C144.584 173.79 136.131 176.012 129.722 176.171C129.107 176.171 128.492 176.171 127.917 176.171ZM116.785 174.325C117.142 174.563 119.94 176.171 129.722 175.952C135.754 175.814 143.632 173.809 144.524 173.591L141.627 146.288H147.878L146.092 136.208C145.794 134.482 144.683 133.034 143.076 132.339L131.667 128.153C127.897 132.042 125.754 132.617 124.643 132.399C123.928 132.26 123.571 131.823 123.432 131.605L120.337 134.681C118.392 137.339 117.202 139.621 117.321 142.657L117.241 164.682L116.785 174.325Z" fill="#261134"/>
<path d="M116.626 141.685H84.978V166.329H116.626V141.685Z" fill="#261134"/>
<path d="M122.083 141.685H93.1332V166.329H122.083V141.685Z" fill="#FEFEFE"/>
<path d="M122.182 166.428H93.034V141.586H122.182V166.428ZM93.2324 166.23H121.984V141.784H93.2324V166.23Z" fill="#261134"/>
<path d="M112.162 141.685V147.836L110.356 146.844L108.967 147.776L107.301 146.844L105.753 147.836V141.685H112.162Z" fill="#261134"/>
<path d="M105.773 153.789H99.0859V154.185H105.773V153.789Z" fill="#261134"/>
<path d="M105.773 156.388H99.0859V156.785H105.773V156.388Z" fill="#261134"/>
<path d="M105.773 158.987H99.0859V159.384H105.773V158.987Z" fill="#261134"/>
<path d="M118.511 153.253H107.697V159.999H118.511V153.253Z" fill="#FEFEFE"/>
<path d="M118.611 160.098H107.598V153.154H118.611V160.098ZM107.797 159.9H118.412V153.352H107.797V159.9Z" fill="#261134"/>
<path d="M75.7712 179.742C74.1045 179.98 71.8226 180.179 69.2233 180.08C67.0406 180 64.6199 179.722 62.1198 179.107C59.0839 178.353 55.929 177.083 52.9328 175.06L53.1511 170.535L70.4733 171.012L70.3543 171.845L75.3545 171.766L75.7712 179.742Z" fill="#261134"/>
<path d="M93.0737 167.142C92.8951 167.44 92.657 167.678 92.3792 167.877C92.1014 168.075 91.7839 168.214 91.4466 168.273L89.8791 168.631C88.8671 168.849 87.8353 168.968 86.8035 168.968H85.4344C85.0376 168.968 84.6407 168.869 84.3034 168.67L82.8351 167.857L81.2873 167.678L75.5331 166.984V162.559L80.3747 163.313L82.6168 163.67L87.4781 162.321C87.4781 162.321 88.3313 164.087 85.6725 164.98L88.252 166.25H92.5776C93.034 166.21 93.3316 166.746 93.0737 167.142Z" fill="#FAD338"/>
<path d="M86.7837 169.047H85.4146C84.9979 169.047 84.5812 168.948 84.224 168.73L82.7755 167.936L75.4141 167.043V162.42L82.5969 163.551L87.5179 162.182L87.5575 162.261C87.5773 162.281 87.875 162.916 87.5575 163.63C87.3194 164.206 86.7639 164.662 85.9106 164.98L88.252 166.131H92.5578C92.8157 166.131 93.0539 166.269 93.1729 166.488C93.292 166.706 93.2919 166.984 93.153 167.202C92.9546 167.5 92.7165 167.758 92.4387 167.956C92.1411 168.154 91.8236 168.293 91.4863 168.373L89.9187 168.73C88.8671 168.948 87.8353 169.047 86.7837 169.047ZM75.6125 166.885L82.855 167.758L84.3233 168.571C84.6606 168.75 85.0376 168.849 85.4146 168.849H86.7837C87.8155 168.849 88.8472 168.73 89.8394 168.512L91.4069 168.154C91.7243 168.075 92.022 167.956 92.2998 167.758C92.5577 167.579 92.7959 167.341 92.9745 167.063C93.0737 166.904 93.0736 166.706 92.9943 166.547C92.9149 166.388 92.7364 166.289 92.5578 166.289H88.2124L85.3947 164.9L85.6329 164.821C86.5456 164.523 87.1408 164.067 87.3789 163.511C87.5972 163.015 87.4782 162.559 87.3988 162.38L82.5969 163.71L75.6125 162.618V166.885Z" fill="#261134"/>
<path d="M112.519 126.525H92.895V141.804H112.519V126.525Z" fill="#261134"/>
<path d="M115.892 126.525H97.9547V141.804H115.892V126.525Z" fill="#FAD338"/>
<path d="M115.991 141.903H97.8555V126.426H115.991V141.903ZM98.054 141.705H115.793V126.625H98.054V141.705Z" fill="#261134"/>
<path d="M109.761 126.525V130.335L108.63 129.72L107.757 130.295L106.725 129.72L105.773 130.335V126.525H109.761Z" fill="#261134"/>
<path d="M105.792 133.946H101.645V134.343H105.792V133.946Z" fill="#261134"/>
<path d="M105.792 135.554H101.645V135.95H105.792V135.554Z" fill="#261134"/>
<path d="M105.792 137.181H101.645V137.578H105.792V137.181Z" fill="#261134"/>
<path d="M113.69 133.689H106.983V137.875H113.69V133.689Z" fill="#FEFEFE"/>
<path d="M113.789 137.974H106.884V133.589H113.789V137.974ZM107.082 137.776H113.591V133.788H107.082V137.776Z" fill="#261134"/>
<path d="M81.2675 167.658L75.5133 166.964V162.539L80.3548 163.293L81.2675 167.658Z" fill="#261134"/>
<path d="M79.5213 162.857L75.8902 162.162L75.295 144.344C75.2553 143.213 74.7393 142.141 73.8663 141.407L70.1558 138.312C70.1558 138.312 69.4415 142.856 62.5166 138.312L56.1075 140.613C54.3018 141.268 52.9328 142.796 52.4963 144.661L48.4484 164.325C48.0714 166.15 49.4207 167.877 51.2859 167.936L53.2105 167.996L52.278 174.266C52.278 174.266 58.8854 177.103 65.6715 177.52C73.4893 178.016 76.0489 176.151 75.9497 175.893L75.5529 169.226L79.5213 169.385V162.857Z" fill="#31B8ED"/>
<path d="M68.2113 177.738C67.4374 177.738 66.5843 177.718 65.6715 177.659C58.945 177.242 52.3177 174.425 52.2383 174.385L52.159 174.345L52.1788 174.266L53.0916 168.115L51.2661 168.055C50.3533 168.016 49.5001 167.599 48.9247 166.865C48.3493 166.15 48.131 165.218 48.3294 164.325L52.3772 144.661C52.8336 142.737 54.2027 141.209 56.0679 140.534L62.5166 138.213L62.5563 138.232C65.235 139.998 67.3581 140.613 68.7073 140.018C69.8383 139.522 70.0368 138.312 70.0368 138.312L70.0567 138.133L73.8862 141.348C74.7791 142.102 75.3148 143.193 75.3545 144.364L75.9498 162.103L79.5809 162.797V169.543L75.6125 169.385L76.0093 175.933C76.0292 175.992 76.0093 176.032 75.9696 176.091C75.7315 176.468 73.6481 177.738 68.2113 177.738ZM52.3971 174.226C53.1313 174.524 59.3617 177.044 65.6914 177.441C73.1719 177.917 75.7315 176.21 75.8505 175.933V175.913L75.4537 169.127L79.442 169.285V162.916L75.8109 162.222L75.2156 144.324C75.176 143.213 74.6601 142.181 73.8267 141.467L70.2551 138.47C70.1559 138.847 69.8185 139.74 68.8463 140.157C67.4176 140.792 65.3143 140.197 62.5364 138.391L56.1671 140.673C54.3813 141.308 53.0518 142.796 52.6153 144.661L48.5675 164.325C48.3889 165.158 48.6072 166.031 49.1231 166.706C49.6589 167.381 50.4526 167.777 51.3058 167.817L53.3495 167.877L52.3971 174.226Z" fill="#261134"/>
<path d="M53.2273 167.884L53.2159 168.082L75.7206 169.374L75.7319 169.176L53.2273 167.884Z" fill="#261134"/>
<path d="M75.9696 162.261L58.8458 158.729L60.3935 150.197L60.5919 150.237L59.064 158.571L76.0093 162.083L75.9696 162.261Z" fill="#261134"/>
<path d="M148.93 158.948C149.108 160.952 147.858 162.817 145.933 163.412L125.655 169.722L123.73 170.397C122.996 170.655 122.202 170.734 121.428 170.635L117.539 170.158C117.301 170.119 117.043 170.059 116.825 169.98L112.281 168.313C111.706 168.095 111.19 167.698 110.852 167.182L110.793 167.083C110.555 166.726 110.813 166.25 111.249 166.25H118.551C116.428 164.9 116.587 163.71 116.587 163.71L121.071 164.325L124.345 164.722L139.802 157.182L138.016 148.273L137.659 146.467H147.937L148.037 147.519L148.93 158.948Z" fill="#FAD338"/>
<path d="M122.043 170.774C121.825 170.774 121.607 170.754 121.408 170.734L117.519 170.258C117.261 170.218 117.003 170.158 116.785 170.079L112.241 168.412C111.626 168.194 111.13 167.797 110.773 167.242L110.713 167.142C110.575 166.944 110.575 166.686 110.694 166.488C110.813 166.269 111.011 166.15 111.269 166.15H118.234C116.368 164.861 116.487 163.749 116.507 163.69L116.527 163.591L121.111 164.206L124.365 164.583L139.723 157.102L137.56 146.328H148.037L149.108 158.928C149.287 160.991 148.017 162.876 146.033 163.491L125.754 169.801L123.829 170.476C123.214 170.674 122.619 170.774 122.043 170.774ZM111.209 166.349C111.051 166.349 110.892 166.428 110.813 166.587C110.733 166.726 110.733 166.904 110.833 167.043L110.892 167.142C111.229 167.639 111.706 168.016 112.261 168.234L116.805 169.901C117.023 169.98 117.261 170.039 117.499 170.079L121.389 170.555C122.143 170.655 122.936 170.575 123.651 170.317L125.575 169.643L145.854 163.333C147.739 162.737 148.949 160.952 148.791 158.967L147.739 146.546H137.679L139.822 157.221L139.762 157.261L124.285 164.801L120.972 164.404L116.607 163.809C116.626 164.107 116.845 165.079 118.531 166.15L118.809 166.329H111.209V166.349Z" fill="#261134"/>
<path d="M136.711 142.165L136.518 142.211L137.616 146.784L137.808 146.738L136.711 142.165Z" fill="#261134"/>
<path d="M147.957 147.479L137.977 148.253L137.6 146.427H147.878L147.957 147.479Z" fill="#261134"/>
</svg>
