<svg width="327" height="327" viewBox="0 0 327 327" fill="none" xmlns="http://www.w3.org/2000/svg">
<path fill-rule="evenodd" clip-rule="evenodd" d="M13.8008 153.921C8.97791 118.268 54.1158 97.5729 78.4105 71.2425C95.4067 52.8222 111.787 34.9007 134.061 23.5845C156.284 12.294 180.155 8.60595 204.979 6.93972C237.343 4.7674 276.527 -10.4017 299.746 12.4634C322.908 35.2724 302.843 75.4075 307.354 107.754C311.763 139.367 332.086 168.021 325.806 199.309C318.371 236.349 301.622 274.377 269.885 294.417C237.12 315.104 192.501 321.869 157.34 305.68C123.911 290.288 123.261 242.052 97.8868 215.224C73.4114 189.347 18.5962 189.372 13.8008 153.921Z" fill="#F3D89F"/>
<path fill-rule="evenodd" clip-rule="evenodd" d="M15.6158 94.2306C32.1148 58.0429 58.8375 25.1191 95.2693 9.81739C130.299 -4.89558 171.393 -1.0184 206.221 14.1744C236.52 27.391 251.329 59.7519 271.03 86.4871C287.293 108.556 304.546 129.459 310.886 156.21C317.593 184.507 319.715 214.844 307.723 241.301C295.51 268.243 270.763 286.122 245.31 300.874C218.862 316.202 190.38 327.52 159.889 326.982C126.124 326.386 92.2748 318.357 65.409 297.7C36.1696 275.217 13.7894 243.889 4.97375 207.866C-4.29219 170.003 -0.537043 129.659 15.6158 94.2306Z" fill="#FDD09F"/>
<path fill-rule="evenodd" clip-rule="evenodd" d="M274.575 202.671C263.405 229.934 259.583 264.501 233.937 278.642C208.426 292.71 178.096 269.344 149.134 271.843C110.71 275.157 71.3125 316.304 38.7271 295.48C7.44606 275.49 16.7427 225.45 18.0879 188.099C19.1423 158.822 30.7831 132.195 45.5169 106.957C58.376 84.929 75.175 66.1517 96.9246 53.0525C118.453 40.0868 142.681 35.5701 167.656 33.3954C197.579 30.7899 230.211 22.6812 255.361 39.2566C281.408 56.4236 295.296 88.7511 298.963 119.937C302.407 149.226 285.742 175.416 274.575 202.671Z" fill="#FCDFC2"/>
<path d="M77.3979 249.421H142.988C147.873 249.421 151.838 245.457 151.838 240.572V89.9568C151.838 85.0712 147.873 81.1071 142.988 81.1071H77.3979C72.5124 81.1071 68.5483 85.0712 68.5483 89.9568V240.572C68.5483 245.457 72.5124 249.421 77.3979 249.421Z" fill="#FEFEFE"/>
<path d="M142.988 249.529H77.3979C72.4481 249.529 68.4411 245.5 68.4411 240.572V89.9567C68.4411 85.007 72.4695 81 77.3979 81H142.988C147.938 81 151.945 85.0284 151.945 89.9567V240.572C151.966 245.5 147.938 249.529 142.988 249.529ZM77.3979 81.2143C72.5767 81.2143 68.6554 85.1355 68.6554 89.9567V240.572C68.6554 245.393 72.5767 249.314 77.3979 249.314H142.988C147.809 249.314 151.73 245.393 151.73 240.572V89.9567C151.73 85.1355 147.809 81.2143 142.988 81.2143H77.3979Z" fill="#261134"/>
<path d="M78.7907 246.807H141.617C145.902 246.807 149.395 243.336 149.395 239.029V91.4781C149.395 87.1926 145.924 83.6999 141.617 83.6999H78.7907C74.5052 83.6999 71.0125 87.1711 71.0125 91.4781V239.029C71.0125 243.315 74.4837 246.807 78.7907 246.807Z" fill="#261134"/>
<path d="M139.881 86.7426H130.538C130.388 89.6996 127.946 92.0353 124.967 92.0353H95.0542C92.0758 92.0353 89.633 89.6996 89.4831 86.7426H80.1192C76.6265 86.7426 73.8195 89.5711 73.8195 93.0424V237.829C73.8195 241.322 76.6479 244.129 80.1192 244.129H139.881C143.374 244.129 146.181 241.3 146.181 237.829V93.0424C146.202 89.5711 143.374 86.7426 139.881 86.7426Z" fill="white"/>
<path d="M113.611 87.364H102.468V88.8639H113.611V87.364Z" fill="white"/>
<path d="M116.503 89.2925C117.154 89.2925 117.682 88.7649 117.682 88.114C117.682 87.4631 117.154 86.9355 116.503 86.9355C115.853 86.9355 115.325 87.4631 115.325 88.114C115.325 88.7649 115.853 89.2925 116.503 89.2925Z" fill="white"/>
<path d="M89.8473 132.469L92.0544 139.797L134.374 141.833L129.938 164.418H99.4041V166.304H125.267V166.839H99.4469C95.14 168.232 95.6542 172.346 95.8257 173.332H129.189V173.867H95.3971L95.3543 173.653C95.3328 173.589 94.09 168.296 98.8684 166.454V164.182L89.4617 133.005H80.5906V132.469H89.8473ZM131.653 152.911L126.81 152.868L126.253 157.754H130.71L131.653 152.911ZM108.489 157.754H113.975V152.74L108.211 152.697L108.489 157.754ZM107.675 152.697L102.19 152.654L102.704 157.775H107.954L107.675 152.697ZM114.532 152.761V157.775H119.996L120.253 152.826L114.532 152.761ZM120.275 152.268L120.553 146.676L114.511 146.611V152.204L120.275 152.268ZM113.975 152.204V146.611L107.889 146.547L108.189 152.14L113.975 152.204ZM113.975 146.076V141.383L107.611 141.083L107.868 146.012L113.975 146.076ZM114.532 146.076L120.596 146.14L120.832 141.726L114.532 141.426V146.076ZM121.132 146.14L127.024 146.183L127.496 142.026L121.367 141.726L121.132 146.14ZM121.11 146.676L120.832 152.268L126.339 152.311L126.981 146.719L121.11 146.676ZM126.874 152.311L131.76 152.354L132.853 146.783L127.496 146.74L126.874 152.311ZM126.274 152.868L120.789 152.826L120.532 157.775H125.717L126.274 152.868ZM120.51 158.29L120.232 163.861H125.032L125.674 158.29H120.51ZM119.975 158.29H114.532V163.861H119.696L119.975 158.29ZM113.975 158.29H108.511L108.811 163.861H113.975V158.29ZM107.975 158.29H102.747L103.304 163.861H108.275L107.975 158.29ZM102.211 158.29H97.647L99.3398 163.861H102.768L102.211 158.29ZM102.147 157.754L101.633 152.633L95.9114 152.59L97.4756 157.754H102.147ZM95.7614 152.054L101.59 152.097L101.033 146.504L94.0686 146.44L95.7614 152.054ZM102.125 152.097L107.654 152.14L107.354 146.547L101.568 146.504L102.125 152.097ZM107.332 146.012L107.075 141.062L101.011 140.762L101.525 145.969L107.332 146.012ZM128.031 142.069L127.56 146.204L132.96 146.247L133.731 142.347L128.031 142.069ZM130.603 158.29H126.189L125.546 163.861H129.488L130.603 158.29ZM93.8972 145.883L100.968 145.947L100.454 140.719L92.2258 140.333L93.8972 145.883Z" fill="#261134"/>
<path d="M124.174 173.953C125.696 173.953 126.96 175.196 126.96 176.739C126.96 178.282 125.717 179.524 124.174 179.524C122.653 179.524 121.389 178.282 121.389 176.739C121.389 175.196 122.653 173.953 124.174 173.953ZM124.174 178.56C125.182 178.56 125.996 177.746 125.996 176.739C125.996 175.732 125.182 174.917 124.174 174.917C123.167 174.917 122.353 175.732 122.353 176.739C122.353 177.746 123.167 178.56 124.174 178.56Z" fill="#261134"/>
<path d="M99.4684 174.039C100.99 174.039 102.254 175.282 102.254 176.824C102.254 178.346 101.011 179.61 99.4684 179.61C97.947 179.61 96.6828 178.367 96.6828 176.824C96.7042 175.282 97.947 174.039 99.4684 174.039ZM99.4684 178.624C100.475 178.624 101.29 177.81 101.29 176.803C101.29 175.796 100.475 174.982 99.4684 174.982C98.4613 174.982 97.647 175.796 97.647 176.803C97.647 177.81 98.4613 178.624 99.4684 178.624Z" fill="#261134"/>
<path d="M109.754 128.741C117.6 128.741 123.96 122.38 123.96 114.534C123.96 106.688 117.6 100.328 109.754 100.328C101.908 100.328 95.5471 106.688 95.5471 114.534C95.5471 122.38 101.908 128.741 109.754 128.741Z" fill="#1BA096"/>
<path d="M109.754 128.827C101.868 128.827 95.44 122.42 95.44 114.513C95.44 106.606 101.847 100.199 109.754 100.199C117.66 100.199 124.067 106.606 124.067 114.513C124.067 122.42 117.639 128.827 109.754 128.827ZM109.754 100.435C101.975 100.435 95.6542 106.756 95.6542 114.534C95.6542 122.313 101.975 128.634 109.754 128.634C117.532 128.634 123.853 122.313 123.853 114.534C123.853 106.756 117.51 100.435 109.754 100.435Z" fill="#261134"/>
<path d="M107.311 121.413L100.24 114.556C99.7469 114.063 99.7255 113.27 100.218 112.777C100.711 112.284 101.504 112.263 101.997 112.756L107.332 117.92L117.532 108.106C118.025 107.635 118.818 107.635 119.31 108.149C119.782 108.642 119.782 109.435 119.268 109.927L107.311 121.413Z" fill="white"/>
<path d="M132.896 224.651H86.9975V234.572H132.896V224.651Z" fill="#FEFEFE"/>
<path d="M133.003 234.679H86.8904V224.544H133.003V234.679ZM87.1047 234.465H132.788V224.758H87.1047V234.465Z" fill="black"/>
<path d="M51.3633 188.095C57.1383 188.095 61.82 183.414 61.82 177.639C61.82 171.864 57.1383 167.182 51.3633 167.182C45.5882 167.182 40.9066 171.864 40.9066 177.639C40.9066 183.414 45.5882 188.095 51.3633 188.095Z" fill="#FEFEFE"/>
<path d="M51.3633 188.181C45.5349 188.181 40.7994 183.446 40.7994 177.617C40.7994 171.789 45.5349 167.053 51.3633 167.053C57.1916 167.053 61.9271 171.789 61.9271 177.617C61.9271 183.446 57.1702 188.181 51.3633 188.181ZM51.3633 167.289C45.6635 167.289 41.0137 171.918 41.0137 177.639C41.0137 183.36 45.6421 187.988 51.3633 187.988C57.0844 187.988 61.7128 183.36 61.7128 177.639C61.7128 171.918 57.063 167.289 51.3633 167.289Z" fill="black"/>
<path d="M49.5633 182.696L44.3564 177.66C43.9921 177.296 43.9707 176.717 44.335 176.353C44.6992 175.989 45.2778 175.967 45.6421 176.332L49.5633 180.124L57.063 172.903C57.4272 172.539 58.0058 172.56 58.3701 172.925C58.7343 173.289 58.7129 173.868 58.3486 174.232L49.5633 182.696Z" fill="#1BA096"/>
<path d="M49.5633 182.846L44.2921 177.746C44.0993 177.553 43.9921 177.296 43.9707 177.017C43.9707 176.739 44.0778 176.482 44.2707 176.289C44.4635 176.096 44.7207 175.989 44.9992 175.967C45.2778 175.967 45.5349 176.075 45.7278 176.267L49.5633 179.996L56.9987 172.839C57.4059 172.453 58.0701 172.453 58.4558 172.86C58.8415 173.267 58.8415 173.932 58.4344 174.317L49.5633 182.846ZM44.9992 176.182C44.7635 176.182 44.5706 176.267 44.4207 176.439C44.0992 176.76 44.1207 177.274 44.4421 177.596L49.5633 182.567L58.2844 174.167C58.6058 173.846 58.6272 173.332 58.3058 173.01C58.1558 172.86 57.9415 172.775 57.7273 172.753C57.513 172.753 57.2987 172.839 57.1487 172.989L49.5633 180.296L45.5778 176.417C45.4064 176.267 45.2135 176.182 44.9992 176.182Z" fill="#261134"/>
<path d="M52.7775 109.627H29.1642C28.0285 109.627 27.1072 110.549 27.1072 111.684V128.912C27.1072 130.048 28.0285 130.969 29.1642 130.969H36.4282L40.9709 137.419L45.5135 130.969H52.7775C53.9131 130.969 54.8346 130.048 54.8346 128.912V111.684C54.8346 110.549 53.9131 109.627 52.7775 109.627Z" fill="white"/>
<path d="M40.9708 137.59L36.3639 131.055H29.1642C27.9856 131.055 27 130.091 27 128.891V111.684C27 110.506 27.9642 109.52 29.1642 109.52H52.7774C53.956 109.52 54.9417 110.484 54.9417 111.684V128.912C54.9417 130.091 53.9774 131.076 52.7774 131.076H45.5778L40.9708 137.59ZM29.1642 109.734C28.0928 109.734 27.2143 110.613 27.2143 111.684V128.912C27.2143 129.984 28.0928 130.862 29.1642 130.862H36.471L40.9708 137.226L45.4706 130.862H52.7774C53.8488 130.862 54.7274 129.984 54.7274 128.912V111.684C54.7274 110.613 53.8488 109.734 52.7774 109.734H29.1642Z" fill="black"/>
<path d="M40.9709 112.713V115.82L37.0924 121.648V126.32L38.0567 127.091C38.5709 127.498 39.2138 127.712 39.878 127.712H46.4135C46.992 127.712 47.5063 127.391 47.7634 126.877C47.9348 126.534 47.9777 126.084 47.742 125.527C47.742 125.527 49.5419 125.377 48.8134 123.277C48.8134 123.277 50.3348 122.291 48.9634 120.684C48.9634 120.684 50.0562 119.591 49.2634 118.627C48.9634 118.263 48.5134 118.048 48.042 118.048H43.6707C43.6493 118.07 45.085 112.113 40.9709 112.713Z" fill="#FAD338"/>
<path d="M46.4134 127.841H39.878C39.1923 127.841 38.528 127.605 37.9923 127.198L36.9853 126.405V121.648L40.8637 115.82V112.649L40.9494 112.627C41.9351 112.477 42.7065 112.692 43.2207 113.27C44.4207 114.577 43.9278 117.341 43.7778 117.984H47.9991C48.5134 117.984 48.9848 118.198 49.3062 118.606C50.0133 119.484 49.3062 120.47 49.0705 120.727C49.499 121.241 49.6705 121.734 49.6062 122.227C49.5205 122.827 49.0919 123.213 48.9205 123.341C49.1347 124.027 49.1134 124.584 48.8562 125.012C48.5777 125.441 48.1062 125.591 47.8705 125.634C48.0419 126.105 48.0419 126.555 47.8491 126.962C47.5919 127.498 47.0134 127.841 46.4134 127.841ZM37.1995 126.298L38.1209 127.027C38.6138 127.412 39.2352 127.627 39.878 127.627H46.4134C46.9491 127.627 47.442 127.327 47.6562 126.855C47.8277 126.47 47.8277 126.041 47.6134 125.591L47.5491 125.462L47.6991 125.441C47.6991 125.441 48.3419 125.377 48.6633 124.884C48.899 124.52 48.9205 123.984 48.6848 123.341L48.6633 123.255L48.7276 123.213C48.7276 123.213 49.3062 122.827 49.3919 122.184C49.4562 121.734 49.2633 121.263 48.8562 120.77L48.7919 120.684L48.8562 120.62C48.8991 120.577 49.8633 119.591 49.1562 118.713C48.8776 118.37 48.4705 118.177 48.0205 118.177H43.5207L43.5421 118.048C43.5421 118.006 44.3135 114.77 43.0493 113.399C42.5993 112.906 41.9351 112.713 41.0565 112.82V115.863L37.1781 121.691V126.298H37.1995Z" fill="#261134"/>
<path d="M33.1283 119.741H37.071C37.4567 119.741 37.7781 120.063 37.7781 120.448V127.048C37.7781 127.434 37.4567 127.755 37.071 127.755H33.1283C32.7426 127.755 32.4211 127.434 32.4211 127.048V120.448C32.4426 120.041 32.7426 119.741 33.1283 119.741Z" fill="#31B8ED"/>
<path d="M37.071 127.841H33.1283C32.6783 127.841 32.3141 127.477 32.3141 127.027V120.427C32.3141 119.977 32.6783 119.613 33.1283 119.613H37.071C37.521 119.613 37.8852 119.977 37.8852 120.427V127.027C37.8852 127.477 37.521 127.841 37.071 127.841ZM33.1283 119.848C32.8069 119.848 32.5283 120.106 32.5283 120.448V127.048C32.5283 127.369 32.7855 127.648 33.1283 127.648H37.071C37.3925 127.648 37.671 127.391 37.671 127.048V120.448C37.671 120.127 37.4139 119.848 37.071 119.848H33.1283Z" fill="#261134"/>
<path d="M219.185 81.6856H170.501V100.97H219.185V81.6856Z" fill="#FEFEFE"/>
<path d="M219.292 101.078H170.394V81.5785H219.292V101.078ZM170.608 100.863H219.078V81.7928H170.608V100.863Z" fill="black"/>
<path d="M177.079 91.328C178.973 91.328 180.508 89.7931 180.508 87.8996C180.508 86.0062 178.973 84.4712 177.079 84.4712C175.186 84.4712 173.651 86.0062 173.651 87.8996C173.651 89.7931 175.186 91.328 177.079 91.328Z" fill="#FAD338"/>
<path d="M177.079 91.4352C175.129 91.4352 173.544 89.8495 173.544 87.8996C173.544 85.9497 175.129 84.364 177.079 84.364C179.029 84.364 180.615 85.9497 180.615 87.8996C180.615 89.8495 179.029 91.4352 177.079 91.4352ZM177.079 84.5569C175.237 84.5569 173.758 86.0568 173.758 87.8782C173.758 89.6995 175.258 91.1995 177.079 91.1995C178.901 91.1995 180.401 89.6995 180.401 87.8782C180.401 86.0568 178.922 84.5569 177.079 84.5569Z" fill="#261134"/>
<path d="M184.9 86.0568L185.5 87.2567L186.85 87.4496L185.886 88.3924L186.1 89.7209L184.9 89.0995L183.722 89.7209L183.936 88.3924L182.972 87.4496L184.322 87.2567L184.9 86.0568Z" fill="#FAD338"/>
<path d="M186.25 89.9138L184.922 89.2067L183.593 89.9138L183.85 88.4353L182.779 87.3853L184.279 87.1711L184.943 85.8211L185.607 87.1711L187.107 87.3853L186.036 88.4353L186.25 89.9138ZM183.208 87.5353L184.065 88.371L183.872 89.5495L184.922 88.9924L185.972 89.5495L185.779 88.371L186.636 87.5353L185.458 87.3639L184.922 86.2925L184.386 87.3639L183.208 87.5353Z" fill="#261134"/>
<path d="M190.836 86.0568L191.436 87.2567L192.764 87.4496L191.8 88.3924L192.014 89.7209L190.836 89.0995L189.636 89.7209L189.872 88.3924L188.907 87.4496L190.236 87.2567L190.836 86.0568Z" fill="#FAD338"/>
<path d="M189.486 89.9138L189.743 88.4353L188.672 87.3853L190.172 87.1711L190.836 85.8211L191.5 87.1711L193 87.3853L191.929 88.4353L192.186 89.9138L190.857 89.2067L189.486 89.9138ZM190.836 88.971L191.886 89.5281L191.693 88.3496L192.55 87.5139L191.372 87.3425L190.836 86.2711L190.3 87.3425L189.122 87.5139L189.979 88.3496L189.786 89.5281L190.836 88.971Z" fill="#261134"/>
<path d="M196.75 86.0568L197.35 87.2567L198.678 87.4496L197.714 88.3924L197.95 89.7209L196.75 89.0995L195.55 89.7209L195.786 88.3924L194.821 87.4496L196.15 87.2567L196.75 86.0568Z" fill="#FAD338"/>
<path d="M195.421 89.9138L195.678 88.4353L194.607 87.3853L196.107 87.1711L196.771 85.8211L197.436 87.1711L198.936 87.3853L197.864 88.4353L198.121 89.9138L196.793 89.2067L195.421 89.9138ZM196.75 88.971L197.8 89.5281L197.607 88.3496L198.464 87.5139L197.286 87.3425L196.75 86.2711L196.214 87.3425L195.036 87.5139L195.893 88.3496L195.7 89.5281L196.75 88.971Z" fill="#261134"/>
<path d="M202.471 86.0568L203.071 87.2567L204.4 87.4496L203.435 88.3924L203.671 89.7209L202.471 89.0995L201.293 89.7209L201.507 88.3924L200.543 87.4496L201.871 87.2567L202.471 86.0568Z" fill="#FAD338"/>
<path d="M201.143 89.9138L201.4 88.4353L200.328 87.3853L201.828 87.1711L202.493 85.8211L203.157 87.1711L204.657 87.3853L203.585 88.4353L203.842 89.9138L202.514 89.2067L201.143 89.9138ZM202.471 88.971L203.521 89.5281L203.328 88.3496L204.185 87.5139L203.007 87.3425L202.471 86.2711L201.935 87.3425L200.757 87.5139L201.614 88.3496L201.421 89.5281L202.471 88.971Z" fill="#261134"/>
<path d="M208.214 86.0568L208.792 87.2567L210.142 87.4496L209.178 88.3924L209.392 89.7209L208.214 89.0995L207.014 89.7209L207.249 88.3924L206.285 87.4496L207.614 87.2567L208.214 86.0568Z" fill="#FAD338"/>
<path d="M209.542 89.9138L208.214 89.2067L206.885 89.9138L207.142 88.4353L206.071 87.3853L207.571 87.1711L208.235 85.8211L208.899 87.1711L210.399 87.3853L209.328 88.4353L209.542 89.9138ZM206.499 87.5353L207.357 88.371L207.164 89.5495L208.214 88.9924L209.264 89.5495L209.071 88.371L209.928 87.5353L208.749 87.3639L208.214 86.2925L207.678 87.3639L206.499 87.5353Z" fill="#261134"/>
<path d="M215.928 96.9635H173.544V98.4848H215.928V96.9635Z" fill="#31B8ED"/>
<path d="M216.056 98.592H173.458V96.8564H216.056V98.592ZM173.651 98.3777H215.82V97.0707H173.651V98.3777Z" fill="#261134"/>
<path d="M194.65 93.4279H173.651V94.9493H194.65V93.4279Z" fill="#31B8ED"/>
<path d="M194.757 95.0565H173.544V93.3208H194.757V95.0565ZM173.758 94.8422H194.543V93.5351H173.758V94.8422Z" fill="#261134"/>
<path d="M292.06 158.654L312.824 173.31C313.659 173.91 313.874 175.067 313.274 175.903L291.203 207.166C290.603 208.002 289.446 208.216 288.61 207.616L267.847 192.96C267.011 192.36 266.797 191.202 267.397 190.367L289.467 159.104C290.046 158.268 291.225 158.054 292.06 158.654Z" fill="#FEFEFE"/>
<path d="M289.66 208.066C289.253 208.066 288.868 207.938 288.525 207.702L267.761 193.045C267.333 192.745 267.054 192.295 266.947 191.781C266.861 191.267 266.968 190.731 267.268 190.302L289.339 159.04C289.639 158.611 290.089 158.332 290.603 158.225C291.117 158.14 291.653 158.247 292.082 158.547L312.845 173.203C313.274 173.503 313.552 173.953 313.659 174.467C313.745 174.982 313.638 175.517 313.338 175.946L291.267 207.209C290.967 207.638 290.517 207.916 290.003 208.023C289.896 208.045 289.767 208.066 289.66 208.066ZM290.989 158.418C290.882 158.418 290.796 158.418 290.689 158.44C290.217 158.525 289.832 158.782 289.553 159.147L267.483 190.41C267.204 190.795 267.097 191.267 267.183 191.717C267.268 192.188 267.525 192.574 267.89 192.852L288.653 207.509C289.446 208.066 290.539 207.873 291.096 207.08L313.166 175.817C313.445 175.432 313.552 174.96 313.466 174.51C313.381 174.039 313.124 173.653 312.759 173.375L291.996 158.718C291.696 158.525 291.353 158.418 290.989 158.418Z" fill="#261134"/>
<path d="M294.616 160.486L270.4 194.799L274.409 197.628L298.625 163.316L294.616 160.486Z" fill="#FAD338"/>
<path d="M274.468 197.781L270.29 194.824L270.354 194.738L294.61 160.325L298.789 163.282L298.724 163.368L274.468 197.781ZM270.568 194.76L274.404 197.459L298.489 163.325L294.653 160.625L270.568 194.76Z" fill="#261134"/>
<path d="M297.847 162.758L273.631 197.071L278.235 200.32L302.451 166.007L297.847 162.758Z" fill="#261134"/>
<path d="M277.254 196.774C277.639 197.052 278.154 196.945 278.432 196.581L283.318 189.66C283.596 189.274 283.489 188.76 283.103 188.481C282.718 188.203 282.203 188.31 281.925 188.696L277.039 195.617C276.782 195.981 276.868 196.495 277.254 196.774Z" fill="#FEFEFE"/>
<path d="M277.725 197.031C277.532 197.031 277.34 196.967 277.168 196.859C276.74 196.559 276.632 195.96 276.932 195.531L281.818 188.61C281.968 188.396 282.182 188.267 282.439 188.224C282.696 188.181 282.954 188.246 283.146 188.396C283.575 188.696 283.682 189.295 283.382 189.724L278.497 196.645C278.347 196.859 278.132 196.988 277.875 197.031C277.832 197.031 277.79 197.031 277.725 197.031ZM282.611 188.417C282.568 188.417 282.525 188.417 282.482 188.438C282.289 188.481 282.118 188.588 282.011 188.738L277.125 195.659C276.889 196.002 276.975 196.452 277.297 196.688C277.64 196.924 278.089 196.838 278.325 196.517L283.211 189.595C283.446 189.253 283.361 188.803 283.039 188.567C282.911 188.481 282.761 188.417 282.611 188.417Z" fill="#261134"/>
<path d="M285.118 185.61C285.503 185.888 286.018 185.781 286.296 185.417L291.182 178.496C291.46 178.11 291.353 177.596 290.989 177.317C290.603 177.039 290.089 177.146 289.81 177.51L284.925 184.431C284.646 184.817 284.732 185.353 285.118 185.61Z" fill="#FEFEFE"/>
<path d="M285.611 185.867C285.418 185.867 285.225 185.803 285.053 185.696C284.625 185.396 284.518 184.796 284.818 184.367L289.703 177.446C289.853 177.232 290.067 177.103 290.325 177.06C290.582 177.017 290.839 177.082 291.032 177.232C291.46 177.532 291.567 178.132 291.267 178.56L286.382 185.481C286.211 185.738 285.911 185.867 285.611 185.867ZM285.182 185.524C285.525 185.76 285.975 185.674 286.21 185.353L291.096 178.432C291.332 178.089 291.246 177.639 290.925 177.403C290.582 177.167 290.132 177.253 289.896 177.575L285.011 184.496C284.775 184.817 284.861 185.288 285.182 185.524Z" fill="#261134"/>
<path d="M294.437 174.471C294.71 174.084 294.618 173.549 294.231 173.276C293.844 173.004 293.31 173.096 293.037 173.483C292.764 173.869 292.856 174.404 293.243 174.677C293.629 174.95 294.164 174.858 294.437 174.471Z" fill="#FEFEFE"/>
<path d="M293.753 174.917C293.56 174.917 293.367 174.853 293.196 174.746C292.767 174.446 292.66 173.846 292.96 173.418C293.11 173.203 293.324 173.075 293.582 173.032C293.839 172.989 294.096 173.053 294.289 173.203C294.717 173.503 294.824 174.103 294.524 174.532C294.353 174.768 294.053 174.917 293.753 174.917ZM293.774 173.225C293.539 173.225 293.303 173.332 293.174 173.546C292.939 173.889 293.024 174.339 293.346 174.575C293.689 174.81 294.139 174.725 294.374 174.403C294.482 174.232 294.524 174.039 294.503 173.846C294.46 173.653 294.353 173.482 294.203 173.375C294.053 173.268 293.903 173.225 293.774 173.225Z" fill="#261134"/>
<path d="M296.006 172.26C296.279 171.873 296.187 171.338 295.8 171.065C295.413 170.792 294.879 170.884 294.606 171.271C294.333 171.658 294.425 172.193 294.812 172.466C295.198 172.739 295.733 172.646 296.006 172.26Z" fill="#FEFEFE"/>
<path d="M295.317 172.689C295.124 172.689 294.932 172.625 294.76 172.518C294.546 172.368 294.417 172.153 294.374 171.896C294.331 171.639 294.396 171.382 294.546 171.189C294.696 170.975 294.91 170.846 295.167 170.803C295.424 170.76 295.681 170.825 295.874 170.975C296.303 171.275 296.41 171.875 296.11 172.303C295.917 172.56 295.617 172.689 295.317 172.689ZM295.317 170.996C295.274 170.996 295.232 170.996 295.189 171.018C294.996 171.06 294.824 171.168 294.717 171.318C294.482 171.66 294.567 172.11 294.889 172.346C295.231 172.582 295.681 172.496 295.917 172.175C296.153 171.832 296.067 171.382 295.746 171.146C295.617 171.039 295.489 170.996 295.317 170.996Z" fill="#261134"/>
<path d="M297.558 170.036C297.83 169.649 297.738 169.114 297.351 168.841C296.965 168.568 296.43 168.661 296.157 169.047C295.884 169.434 295.976 169.969 296.363 170.242C296.75 170.515 297.285 170.423 297.558 170.036Z" fill="#FEFEFE"/>
<path d="M296.882 170.482C296.689 170.482 296.496 170.418 296.324 170.311C295.896 170.011 295.789 169.411 296.089 168.982C296.389 168.554 296.989 168.446 297.417 168.746C297.632 168.896 297.76 169.111 297.803 169.368C297.846 169.625 297.781 169.882 297.632 170.075C297.482 170.289 297.267 170.418 297.01 170.461C296.989 170.482 296.946 170.482 296.882 170.482ZM296.882 168.789C296.646 168.789 296.41 168.896 296.281 169.111C296.046 169.454 296.132 169.904 296.453 170.139C296.624 170.246 296.817 170.289 297.01 170.268C297.203 170.225 297.374 170.118 297.481 169.968C297.589 169.796 297.631 169.604 297.61 169.411C297.567 169.218 297.46 169.046 297.31 168.939C297.182 168.832 297.032 168.789 296.882 168.789Z" fill="#261134"/>
<path d="M299.127 167.825C299.399 167.438 299.307 166.903 298.92 166.63C298.534 166.357 297.999 166.449 297.726 166.836C297.453 167.223 297.545 167.758 297.932 168.031C298.319 168.303 298.854 168.211 299.127 167.825Z" fill="#FEFEFE"/>
<path d="M298.446 168.275C298.253 168.275 298.06 168.211 297.889 168.103C297.46 167.804 297.353 167.204 297.653 166.775C297.953 166.346 298.553 166.239 298.981 166.539C299.41 166.839 299.517 167.439 299.217 167.868C299.046 168.125 298.746 168.275 298.446 168.275ZM298.446 166.582C298.21 166.582 297.974 166.689 297.846 166.904C297.61 167.246 297.696 167.696 298.017 167.932C298.36 168.168 298.81 168.082 299.046 167.761C299.281 167.418 299.196 166.968 298.874 166.732C298.746 166.625 298.596 166.582 298.446 166.582Z" fill="#261134"/>
<path d="M303.627 182.191C304.76 180.586 304.377 178.367 302.772 177.234C301.167 176.102 298.948 176.484 297.815 178.089C296.683 179.694 297.065 181.914 298.67 183.046C300.275 184.179 302.495 183.796 303.627 182.191Z" fill="#FAD338"/>
<path d="M300.738 183.788C300.01 183.788 299.281 183.574 298.639 183.124C296.989 181.967 296.603 179.674 297.76 178.024C298.917 176.375 301.21 175.989 302.86 177.146C304.51 178.303 304.895 180.596 303.738 182.246C303.031 183.253 301.896 183.788 300.738 183.788ZM300.738 176.675C299.646 176.675 298.596 177.189 297.91 178.132C296.817 179.696 297.181 181.839 298.746 182.931C300.31 184.024 302.453 183.66 303.546 182.096C304.638 180.531 304.274 178.389 302.71 177.296C302.131 176.889 301.424 176.675 300.738 176.675Z" fill="#261134"/>
<path d="M305.978 178.859C307.111 177.254 306.728 175.035 305.123 173.902C303.518 172.77 301.299 173.152 300.166 174.757C299.033 176.362 299.416 178.582 301.021 179.714C302.626 180.847 304.846 180.464 305.978 178.859Z" fill="#CDCBCC"/>
<path d="M303.074 180.467C302.324 180.467 301.596 180.231 300.974 179.803C299.324 178.646 298.939 176.353 300.096 174.703C301.253 173.053 303.545 172.667 305.195 173.825C306.845 174.982 307.231 177.274 306.074 178.924C305.517 179.717 304.66 180.253 303.695 180.424C303.503 180.446 303.288 180.467 303.074 180.467ZM303.095 173.353C302.003 173.353 300.953 173.867 300.267 174.81C299.174 176.374 299.538 178.517 301.103 179.61C301.853 180.146 302.774 180.339 303.674 180.189C304.574 180.039 305.367 179.524 305.903 178.774C306.995 177.21 306.631 175.067 305.067 173.975C304.467 173.567 303.781 173.353 303.095 173.353Z" fill="#261134"/>
<path d="M285.075 197.609C285.461 197.888 285.975 197.781 286.253 197.417L294.074 186.338C294.353 185.953 294.246 185.439 293.882 185.16C293.496 184.881 292.982 184.989 292.703 185.353L284.882 196.431C284.603 196.817 284.711 197.331 285.075 197.609Z" fill="#FEFEFE"/>
<path d="M285.568 197.866C285.375 197.866 285.182 197.802 285.011 197.695C284.796 197.545 284.668 197.331 284.625 197.074C284.582 196.817 284.646 196.559 284.796 196.367L292.617 185.288C292.917 184.86 293.517 184.753 293.946 185.053C294.374 185.353 294.482 185.953 294.182 186.381L286.36 197.459C286.168 197.738 285.868 197.866 285.568 197.866ZM285.139 197.524C285.482 197.759 285.932 197.674 286.168 197.352L293.989 186.274C294.224 185.931 294.139 185.481 293.817 185.246C293.646 185.138 293.453 185.096 293.26 185.117C293.067 185.16 292.896 185.267 292.789 185.417L284.968 196.495C284.732 196.817 284.818 197.288 285.139 197.524Z" fill="#261134"/>
<path d="M287.303 199.174C287.689 199.452 288.203 199.345 288.482 198.981L296.303 187.903C296.581 187.517 296.474 187.003 296.089 186.724C295.703 186.446 295.189 186.553 294.91 186.917L287.089 197.995C286.832 198.381 286.918 198.895 287.303 199.174Z" fill="#FEFEFE"/>
<path d="M287.775 199.431C287.582 199.431 287.389 199.366 287.218 199.259C286.789 198.959 286.682 198.359 286.982 197.931L294.803 186.853C295.103 186.424 295.703 186.317 296.132 186.617C296.56 186.917 296.667 187.517 296.367 187.946L288.546 199.024C288.396 199.238 288.182 199.366 287.925 199.409C287.903 199.431 287.839 199.431 287.775 199.431ZM295.596 186.66C295.553 186.66 295.51 186.66 295.467 186.681C295.274 186.724 295.103 186.831 294.996 186.981L287.175 198.059C286.939 198.402 287.025 198.852 287.346 199.088C287.518 199.195 287.71 199.238 287.903 199.216C288.096 199.195 288.268 199.066 288.375 198.917L296.196 187.838C296.431 187.496 296.346 187.046 296.024 186.81C295.896 186.724 295.746 186.66 295.596 186.66Z" fill="#261134"/>
<path d="M289.51 200.738C289.896 201.016 290.41 200.909 290.689 200.545L298.51 189.467C298.789 189.081 298.681 188.567 298.317 188.288C297.931 188.01 297.417 188.117 297.139 188.503L289.317 199.581C289.039 199.945 289.125 200.459 289.51 200.738Z" fill="#FEFEFE"/>
<path d="M290.003 200.995C289.81 200.995 289.617 200.931 289.446 200.824C289.232 200.674 289.103 200.459 289.06 200.202C289.017 199.945 289.082 199.688 289.232 199.495L297.053 188.417C297.203 188.203 297.417 188.074 297.674 188.031C297.931 187.988 298.189 188.053 298.381 188.203C298.596 188.353 298.724 188.567 298.767 188.824C298.81 189.081 298.746 189.338 298.596 189.531L290.775 200.609C290.625 200.824 290.41 200.952 290.153 200.995C290.11 200.995 290.046 200.995 290.003 200.995ZM297.824 188.224C297.781 188.224 297.739 188.224 297.696 188.246C297.503 188.288 297.331 188.395 297.224 188.545L289.403 199.624C289.296 199.795 289.253 199.988 289.275 200.181C289.317 200.374 289.425 200.545 289.575 200.652C289.746 200.759 289.939 200.802 290.132 200.781C290.325 200.738 290.496 200.631 290.603 200.481L298.424 189.403C298.531 189.231 298.574 189.038 298.553 188.845C298.51 188.653 298.403 188.481 298.253 188.374C298.103 188.288 297.974 188.224 297.824 188.224Z" fill="#261134"/>
<path d="M274.147 175.175L275.711 197.931H260.09V175.175H274.147Z" fill="#F27B79"/>
<path d="M275.839 198.038H259.983V175.067H274.254L275.839 198.038ZM260.197 197.824H275.604L274.061 175.282H260.197V197.824Z" fill="#261134"/>
<path d="M260.711 175.153L261.847 197.931H255.612L256.833 175.153H260.711Z" fill="#261134"/>
<path d="M261.954 198.038H255.505L256.747 175.046H260.819V175.153L261.954 198.038ZM255.719 197.824H261.719L260.604 175.26H256.94L255.719 197.824Z" fill="#261134"/>
<path d="M269.475 181.667C269.411 181.667 269.368 181.667 269.325 181.667C266.197 181.496 265.661 178.86 265.576 178.324C265.533 178.067 265.511 177.832 265.468 177.617C265.126 175.175 264.997 174.489 264.204 174.553C263.54 174.617 263.283 175.217 263.283 175.217L263.09 175.132C263.111 175.11 263.39 174.403 264.183 174.339C265.211 174.232 265.361 175.217 265.683 177.574C265.704 177.81 265.747 178.046 265.79 178.282C265.854 178.774 266.368 181.281 269.325 181.431C269.69 181.453 270.375 181.41 270.911 180.939C271.361 180.531 271.597 179.91 271.64 179.074C271.704 178.003 271.383 175.26 270.547 174.789C270.311 174.66 270.097 174.639 269.925 174.703C269.647 174.832 269.54 175.175 269.54 175.196L269.325 175.132C269.325 175.11 269.454 174.66 269.84 174.51C270.075 174.403 270.333 174.446 270.633 174.617C271.618 175.153 271.897 178.046 271.833 179.096C271.79 179.996 271.511 180.66 271.04 181.11C270.547 181.581 269.904 181.667 269.475 181.667Z" fill="#261134"/>
<path d="M277.232 184.581H265.469L266.369 197.931H280.639L277.232 184.581Z" fill="#31B8ED"/>
<path d="M280.789 198.038H266.261L265.361 184.474H277.318L280.789 198.038ZM266.454 197.824H280.489L277.147 184.688H265.576L266.454 197.824Z" fill="#261134"/>
<path d="M264.204 184.56H265.897L269.175 197.931H264.547L264.204 184.56Z" fill="#261134"/>
<path d="M269.325 198.038H264.461L264.097 184.453H265.983L269.325 198.038ZM264.654 197.824H269.047L265.811 184.667H264.311L264.654 197.824Z" fill="#261134"/>
<path d="M273.332 189.145H273.311C272.261 189.145 271.49 188.545 270.954 187.324L269.818 184.624C269.818 184.624 269.475 183.917 268.918 184.046C268.425 184.153 268.318 184.603 268.318 184.603L268.104 184.56C268.104 184.538 268.233 183.96 268.854 183.831C269.561 183.681 269.968 184.496 269.99 184.538L271.125 187.238C271.79 188.738 272.668 188.91 273.29 188.931H273.311C275.175 188.931 275.218 187.495 275.261 186.66C275.261 186.596 275.261 186.531 275.261 186.467C275.368 184.538 274.768 184.238 274.575 184.196C273.868 184.024 273.654 184.646 273.632 184.667L273.44 184.603C273.44 184.603 273.739 183.746 274.639 183.981C274.939 184.046 275.582 184.453 275.475 186.488C275.475 186.553 275.475 186.617 275.475 186.681C275.454 187.517 275.389 189.145 273.332 189.145Z" fill="#261134"/>
<path d="M255.612 198.081L255.462 197.952L258.612 194.138V175.175H258.826V194.224L255.612 198.081Z" fill="white"/>
<path d="M258.71 194.113L258.548 194.252L261.685 197.912L261.848 197.773L258.71 194.113Z" fill="white"/>
<path d="M264.676 197.909L264.504 197.781L266.218 195.038L265.018 184.56L265.211 184.538L266.454 195.081L264.676 197.909Z" fill="white"/>
<path d="M266.409 195.028L266.258 195.18L269.046 197.967L269.197 197.816L266.409 195.028Z" fill="white"/>
<path d="M287.496 197.866H249.826V227.179H287.496V197.866Z" fill="#261134"/>
<path d="M293.967 197.866H259.533V227.179H293.967V197.866Z" fill="#FAD338"/>
<path d="M294.074 227.287H259.426V197.759H294.074V227.287ZM259.64 227.072H293.86V197.974H259.64V227.072Z" fill="#261134"/>
<path d="M282.182 197.866V205.173L280.039 203.973L278.368 205.088L276.375 203.973L274.554 205.173V197.866H282.182Z" fill="#261134"/>
<path d="M274.554 212.266H266.604V212.694H274.554V212.266Z" fill="#261134"/>
<path d="M274.554 215.373H266.604V215.801H274.554V215.373Z" fill="#261134"/>
<path d="M274.554 218.458H266.604V218.887H274.554V218.458Z" fill="#261134"/>
<path d="M289.725 211.602H276.847V219.637H289.725V211.602Z" fill="#FEFEFE"/>
<path d="M289.832 219.744H276.739V211.494H289.832V219.744ZM276.954 219.53H289.617V211.709H276.954V219.53Z" fill="#261134"/>
<path d="M235.791 180.639L239.027 191.374L301.038 194.352L294.546 227.458H249.783V230.244H287.668V231.037H249.848C243.548 233.072 244.276 239.115 244.555 240.55H293.432V241.343H243.934L243.848 241.043C243.827 240.958 241.984 233.201 248.991 230.501V227.137L235.213 181.453H222.227V180.66H235.791V180.639ZM297.053 210.595L289.96 210.53L289.146 217.709H295.66L297.053 210.595ZM263.111 217.709H271.147V210.38L262.704 210.295L263.111 217.709ZM261.911 210.273L253.855 210.209L254.605 217.709H262.297L261.911 210.273ZM271.94 210.359V217.687H279.954L280.339 210.423L271.94 210.359ZM280.361 209.652L280.789 201.466L271.94 201.381V209.566L280.361 209.652ZM271.147 209.566V201.381L262.233 201.295L262.661 209.502L271.147 209.566ZM271.147 200.588V193.731L261.804 193.281L262.19 200.524L271.147 200.588ZM271.94 200.588L280.832 200.674L281.175 194.202L271.94 193.752V200.588ZM281.625 200.674L290.26 200.759L290.946 194.674L281.946 194.245L281.625 200.674ZM281.582 201.466L281.154 209.652L289.232 209.716L290.153 201.531L281.582 201.466ZM290.025 209.737L297.181 209.802L298.788 201.616L290.946 201.552L290.025 209.737ZM289.146 210.53L281.111 210.466L280.746 217.709H288.332L289.146 210.53ZM280.704 218.501L280.275 226.665H287.303L288.225 218.501H280.704ZM279.911 218.501H271.94V226.665H279.504L279.911 218.501ZM271.147 218.501H263.154L263.583 226.665H271.147V218.501ZM262.34 218.501H254.669L255.483 226.665H262.769L262.34 218.501ZM253.876 218.501H247.191L249.655 226.665H254.669L253.876 218.501ZM253.812 217.709L253.062 210.209L244.684 210.145L246.976 217.73H253.812V217.709ZM244.448 209.33L252.998 209.416L252.183 201.209L241.984 201.123L244.448 209.33ZM253.79 209.416L261.869 209.48L261.44 201.273L252.976 201.188L253.79 209.416ZM261.397 200.502L261.012 193.238L252.14 192.81L252.89 200.416L261.397 200.502ZM291.739 194.695L291.053 200.759L298.96 200.823L300.074 195.102L291.739 194.695ZM295.489 218.501H289.039L288.118 226.665H293.903L295.489 218.501ZM241.727 200.309L252.098 200.395L251.348 192.745L239.284 192.167L241.727 200.309Z" fill="#261134"/>
<path d="M286.082 241.45C288.332 241.45 290.153 243.272 290.153 245.522C290.153 247.772 288.332 249.593 286.082 249.593C283.832 249.593 282.011 247.772 282.011 245.522C282.011 243.272 283.832 241.45 286.082 241.45ZM286.082 248.2C287.56 248.2 288.76 247 288.76 245.522C288.76 244.043 287.56 242.843 286.082 242.843C284.603 242.843 283.403 244.043 283.403 245.522C283.403 247 284.603 248.2 286.082 248.2Z" fill="#261134"/>
<path d="M249.869 241.536C252.119 241.536 253.94 243.357 253.94 245.607C253.94 247.857 252.119 249.679 249.869 249.679C247.619 249.679 245.798 247.857 245.798 245.607C245.798 243.357 247.641 241.536 249.869 241.536ZM249.869 248.286C251.348 248.286 252.548 247.086 252.548 245.607C252.548 244.129 251.348 242.929 249.869 242.929C248.391 242.929 247.191 244.129 247.191 245.607C247.191 247.086 248.412 248.286 249.869 248.286Z" fill="#261134"/>
<path d="M226.063 179.61H214.706V182.396H226.063V179.61Z" fill="#261134"/>
<path d="M219.078 170.932L221.863 172.646L225.42 173.289C225.999 173.289 226.513 173.61 226.749 174.146L228.613 178.196C228.784 178.56 228.613 179.01 228.249 179.16L225.506 180.36H221.435C221.435 180.36 221.22 179.289 222.506 178.432L219.935 177.917L213.828 176.053L219.078 170.932Z" fill="#FAD338"/>
<path d="M225.527 180.467H221.349L221.327 180.382C221.327 180.339 221.135 179.353 222.249 178.496L219.913 178.024L213.613 176.096L219.056 170.803L221.906 172.56L225.442 173.203C226.02 173.203 226.577 173.568 226.834 174.103L228.699 178.153C228.784 178.367 228.806 178.582 228.72 178.796C228.634 179.01 228.484 179.182 228.27 179.267L225.527 180.467ZM221.52 180.253H225.463L228.184 179.053C228.334 178.989 228.463 178.86 228.506 178.71C228.57 178.56 228.549 178.389 228.484 178.239L226.62 174.189C226.406 173.717 225.913 173.396 225.399 173.396L221.777 172.732L219.056 171.06L213.999 175.989L219.935 177.81L222.742 178.389L222.527 178.539C221.563 179.182 221.52 179.996 221.52 180.253Z" fill="#261134"/>
<path d="M194.864 145.647L204.293 157.218L221.863 170.932L219.292 175.646L197.436 162.361L190.579 151.218L194.864 145.647Z" fill="#261134"/>
<path d="M194.607 147.919L201.014 142.005C201.014 142.005 206.778 145.519 208.899 135.833C208.899 135.833 210.549 130.819 205.514 129.169C202.557 128.055 199.236 129.234 197.671 131.976L187.107 143.526L194.607 147.919Z" fill="#FAD338"/>
<path d="M194.629 148.047L186.958 143.526L187.043 143.419L197.607 131.869C199.214 129.084 202.557 127.884 205.578 129.041C210.635 130.691 209.028 135.791 209.028 135.833C208.257 139.369 206.907 141.555 205.021 142.369C203.178 143.162 201.421 142.305 201.057 142.112L194.629 148.047ZM187.279 143.483L194.586 147.79L200.993 141.876L201.057 141.919C201.078 141.94 202.964 143.055 204.914 142.219C206.735 141.447 208.021 139.283 208.792 135.833C208.857 135.619 210.357 130.884 205.492 129.298C202.578 128.184 199.321 129.341 197.778 132.041L197.757 132.062L187.279 143.483Z" fill="#261134"/>
<path d="M197.971 119.463C199.514 120.277 201.014 122.527 200.393 125.677C200.393 125.677 200.264 125.955 200.071 126.405C200.864 126.127 201.635 126.084 202.3 126.17C210.335 127.198 209.585 134.033 209.585 134.033L202.128 132.834C201.657 131.848 200.671 131.676 200.243 131.976C198.657 133.112 199.257 135.512 199.257 135.512L194.693 135.298C194.736 131.226 196.921 128.998 197.307 128.484C195.807 128.698 192.914 128.762 191.2 126.277C190.664 125.484 190.472 123.941 190.986 122.484C191.779 120.298 194.329 117.534 197.971 119.463Z" fill="#261134"/>
<path d="M211.321 243.915L195.764 249.4L193.236 242.757L191.672 238.622L199.064 235.815L200.221 238.858L201.057 241.043C201.057 241.065 209.221 241.429 211.321 243.915Z" fill="#F27B79"/>
<path d="M195.7 249.55L191.543 238.558L199.15 235.686L201.143 240.958C202 241 209.392 241.45 211.407 243.85L211.514 243.979L195.7 249.55ZM191.8 238.686L195.807 249.271L211.128 243.872C208.942 241.557 201.121 241.172 201.035 241.172H200.971L199 235.965L191.8 238.686Z" fill="#261134"/>
<path d="M200.221 238.858L193.236 242.757L191.672 238.622L199.064 235.815L200.221 238.858Z" fill="#261134"/>
<path d="M122.225 203.716L118.003 205.281L114.725 206.502L115.582 199.216L119.76 197.567L121.453 196.902L122.225 203.716Z" fill="#FAD338"/>
<path d="M114.596 206.673L115.475 199.152L121.539 196.752L122.332 203.802L114.596 206.673ZM115.689 199.302L114.853 206.352L122.117 203.652L121.389 197.052L115.689 199.302Z" fill="#261134"/>
<path d="M122.225 203.716L118.003 205.28C118.496 202.195 119.267 199.259 119.739 197.567L121.453 196.881L122.225 203.716Z" fill="#261134"/>
<path d="M231.034 182.803L228.291 184.003H224.22C224.22 184.003 224.006 182.931 225.292 182.074L222.72 181.56L221.285 181.11L216.613 179.674L221.435 175.217L223.813 176.674L224.22 176.932H228.206C228.784 176.932 229.299 177.253 229.534 177.789L231.398 181.839C231.591 182.203 231.42 182.631 231.034 182.803Z" fill="#FAD338"/>
<path d="M228.313 184.11H224.135L224.113 184.024C224.113 183.981 223.92 182.996 225.034 182.139L222.699 181.667L216.399 179.739L221.413 175.089L224.242 176.825H228.206C228.806 176.825 229.363 177.189 229.62 177.746L231.484 181.796C231.57 182.01 231.591 182.224 231.506 182.439C231.42 182.653 231.27 182.824 231.056 182.91L228.313 184.11ZM224.306 183.896H228.249L230.97 182.696C231.12 182.631 231.248 182.503 231.291 182.353C231.334 182.203 231.356 182.031 231.27 181.881L229.406 177.832C229.191 177.36 228.699 177.039 228.184 177.039H224.156L221.413 175.346L216.785 179.632L222.72 181.453L225.527 182.031L225.313 182.181C224.349 182.824 224.306 183.639 224.306 183.896Z" fill="#261134"/>
<path d="M200.393 237.4L189.679 241.536L174.337 203.566L157.987 181.517L153.402 175.325L160.109 169.603L166.494 164.118L171.915 159.49L177.508 172.796L188.222 198.209L200.393 237.4Z" fill="#CDCBCC"/>
<path d="M189.615 241.665L189.572 241.558L174.251 203.588L153.252 175.282L171.937 159.297L188.307 198.145L200.521 237.443L200.436 237.486L189.615 241.665ZM153.552 175.346L174.444 203.523L189.743 241.407L200.264 237.336L188.115 198.231L171.872 159.661L153.552 175.346Z" fill="#261134"/>
<path d="M223.813 176.675L221.285 181.11L216.613 179.674L221.435 175.217L223.813 176.675Z" fill="#261134"/>
<path d="M171.915 167.289L167.051 172.26L157.987 181.517L138.552 201.381L119.31 209.159C119.203 204.359 120.532 196.988 120.532 196.988L132.21 190.41L150.852 163.132L154.837 157.304L166.473 164.118L171.915 167.289Z" fill="#CDCBCC"/>
<path d="M119.225 209.309V209.159C119.118 204.402 120.425 197.031 120.446 196.967V196.924L120.489 196.902L132.146 190.345L154.816 157.175L172.065 167.268L138.595 201.466L119.225 209.309ZM120.639 197.052C120.532 197.695 119.375 204.466 119.439 208.987L138.51 201.274L171.744 167.311L154.902 157.454L150.959 163.218L132.296 190.517L132.274 190.538L120.639 197.052Z" fill="#261134"/>
<path d="M177.508 172.796C173.801 173.375 170.265 173.075 167.051 172.239C164.544 171.596 162.209 170.653 160.109 169.582C156.102 167.525 152.909 164.975 150.873 163.132L154.859 157.304L166.494 164.118L171.894 159.49L177.508 172.796Z" fill="#261134"/>
<path d="M202.943 161.075L196.836 149.783C196.579 146.933 196.364 146.976 196.364 146.976C190.386 143.719 190.772 138.448 190.772 138.448L184.793 137.419C179.886 137.483 178.215 139.326 175.644 141.062L152.052 159.232C152.052 159.232 159.723 166.218 164.437 168.575C172.322 172.518 177.315 171.339 177.315 171.339L187.043 160.561L192.379 168.853L218.006 183.339L223.577 175.625L202.943 161.075Z" fill="#1BA096"/>
<path d="M218.028 183.51L217.942 183.467L192.293 168.961L192.272 168.939L187 160.754L177.358 171.446H177.315C177.272 171.468 172.194 172.582 164.351 168.661C159.68 166.325 152.009 159.382 151.923 159.297L151.838 159.211L151.945 159.125L175.537 140.955C175.944 140.676 176.308 140.419 176.672 140.14C178.665 138.705 180.551 137.355 184.729 137.29L190.836 138.34V138.448C190.836 138.49 190.536 143.654 196.343 146.847L196.386 146.89C196.557 147.019 196.729 147.983 196.878 149.74L202.964 161.011L223.663 175.625L218.028 183.51ZM192.464 168.789L217.985 183.21L223.427 175.667L202.857 161.161L202.835 161.139L196.707 149.826V149.804C196.514 147.533 196.321 147.147 196.279 147.083C190.75 144.062 190.6 139.305 190.622 138.555L184.729 137.548C180.636 137.612 178.772 138.94 176.822 140.355C176.458 140.612 176.072 140.89 175.687 141.169L152.202 159.254C153.102 160.068 160.109 166.304 164.48 168.489C171.915 172.218 176.822 171.339 177.251 171.253L187.043 160.411L192.464 168.789Z" fill="#261134"/>
<path d="M112.646 207.873C109.261 200.331 115.432 196.345 115.496 196.302L115.603 196.474C115.539 196.517 109.539 200.416 112.839 207.787L112.646 207.873Z" fill="#261134"/>
<path d="M117.939 211.259C115.346 211.259 114.082 210.037 114.018 209.973L114.168 209.823C114.189 209.845 116.118 211.709 120.146 210.766L120.189 210.98C119.353 211.173 118.603 211.259 117.939 211.259Z" fill="#261134"/>
<path d="M107.418 207.723C106.818 202.838 107.654 199.002 109.861 196.345C112.582 193.067 116.482 192.767 116.525 192.767L116.546 192.981C116.503 192.981 112.689 193.281 110.032 196.495C107.868 199.109 107.054 202.881 107.654 207.702L107.418 207.723Z" fill="#261134"/>
<path d="M116.461 217.087C110.739 217.087 108.661 212.18 108.639 212.116L108.832 212.03C108.854 212.073 111.082 217.301 117.253 216.83L117.275 217.044C116.996 217.087 116.718 217.087 116.461 217.087Z" fill="#261134"/>
<path d="M181.476 151.348L181.294 151.462L187.083 160.681L187.265 160.567L181.476 151.348Z" fill="black"/>
</svg>
