<svg width="327" height="327" viewBox="0 0 327 327" fill="none" xmlns="http://www.w3.org/2000/svg">
<path fill-rule="evenodd" clip-rule="evenodd" d="M212.516 3.60716C247.777 4.27823 260.943 52.0963 282.74 80.1527C297.99 99.7804 312.85 118.723 320.416 142.488C327.965 166.199 327.901 190.38 325.734 215.194C322.908 247.546 331.63 288.63 305.952 308.112C280.337 327.546 244.527 301.567 212.516 301.093C181.231 300.63 150.389 316.363 121.047 305.372C86.3109 292.362 52.0355 269.986 37.4635 235.526C22.4199 199.952 22.6649 154.773 43.6966 122.457C63.6926 91.7318 110.503 98.4524 140.346 77.4427C169.132 57.1773 177.456 2.93991 212.516 3.60716Z" fill="#F3D89F"/>
<path fill-rule="evenodd" clip-rule="evenodd" d="M166.761 0.106375C205.784 -1.12662 246.46 8.2464 275.968 34.1192C304.34 58.9966 319.085 97.5357 321.14 135.469C322.927 168.469 301.085 196.063 286.336 225.549C274.162 249.89 263.448 274.602 242.785 292.125C220.93 310.659 195.26 325.988 166.761 326.952C137.738 327.934 111.13 313.672 86.9527 297.394C61.8299 280.479 39.3274 259.966 26.3348 232.405C11.9475 201.886 4.04233 168.001 10.2965 134.784C17.1033 98.6319 34.6968 64.7113 62.3982 40.8672C91.5143 15.8052 128.555 1.3135 166.761 0.106375Z" fill="#FDD09F"/>
<path fill-rule="evenodd" clip-rule="evenodd" d="M141.654 39.5395C170.569 39.5338 203.317 29.959 225.828 48.3229C248.22 66.5901 238.538 103.513 251.759 129.362C269.3 163.655 321.469 184.499 314.942 222.545C308.677 259.069 259.845 269.447 225.512 282.37C198.602 292.499 170.085 291.828 141.654 287.769C116.841 284.227 93.4808 275.806 73.3888 260.652C53.5015 245.652 40.2433 224.948 28.8236 202.666C15.1414 175.97 -4.5495 148.854 0.943935 119.298C6.63345 88.6882 30.6525 63.5773 57.5052 48.3564C82.7256 34.0607 112.747 39.5452 141.654 39.5395Z" fill="#FCDFC2"/>
<path d="M264.958 160.92L250.134 192.568L290.317 211.86L305.141 180.212L264.958 160.92Z" fill="#261134"/>
<path d="M275.304 165.879L260.48 197.527L297.218 215.165L312.042 183.518L275.304 165.879Z" fill="#FEFEFE"/>
<path d="M297.256 215.293L297.151 215.251L260.324 197.571L260.366 197.465L275.239 165.708L275.344 165.75L312.171 183.431L312.129 183.537L297.256 215.293ZM260.596 197.465L297.151 214.997L311.899 183.537L275.344 166.005L260.596 197.465Z" fill="#261134"/>
<path d="M299.455 177.452L295.747 185.36L294.072 182.964L291.725 183.304L290.175 181.099L287.619 181.438L291.306 173.552L299.455 177.452Z" fill="#261134"/>
<path d="M275.537 185.052L275.358 185.435L283.837 189.505L284.016 189.122L275.537 185.052Z" fill="#261134"/>
<path d="M273.998 188.435L273.819 188.818L282.298 192.889L282.478 192.506L273.998 188.435Z" fill="#261134"/>
<path d="M272.388 191.741L272.208 192.124L280.688 196.195L280.867 195.811L272.388 191.741Z" fill="#261134"/>
<path d="M286.843 189.596L282.788 198.255L296.51 204.843L300.566 196.184L286.843 189.596Z" fill="#FEFEFE"/>
<path d="M296.543 204.969L296.439 204.927L282.613 198.292L286.761 189.43L286.865 189.473L300.691 196.108L296.543 204.969ZM282.906 198.186L296.439 204.694L300.398 196.214L286.865 189.706L282.906 198.186Z" fill="#261134"/>
<path d="M73.8832 161.701L87.2483 189.579C87.7929 190.702 87.3321 192.059 86.2008 192.61L44.7022 212.983C43.5919 213.534 42.2512 213.067 41.7066 211.923L28.3416 184.045C27.7969 182.922 28.2578 181.565 29.389 181.014L70.8876 160.641C71.9979 160.09 73.3386 160.578 73.8832 161.701Z" fill="#FEFEFE"/>
<path d="M43.718 213.322C42.8382 213.322 42.0003 212.834 41.6023 211.986L28.2372 184.109C27.9649 183.537 27.923 182.901 28.1325 182.286C28.342 181.671 28.7609 181.205 29.3265 180.929L70.8252 160.557C71.3908 160.281 72.0192 160.239 72.6267 160.451C73.2133 160.663 73.6951 161.087 73.9674 161.659L87.3325 189.536C87.8981 190.723 87.4163 192.144 86.2432 192.716L44.7445 213.089C44.4303 213.258 44.0742 213.322 43.718 213.322ZM71.8517 160.514C71.5374 160.514 71.2232 160.578 70.909 160.726L29.4103 181.099C28.8866 181.353 28.5096 181.798 28.321 182.328C28.1325 182.879 28.1744 183.473 28.4258 183.982L41.7908 211.859C42.3145 212.94 43.5924 213.385 44.6607 212.855L86.1594 192.483C87.2277 191.953 87.6676 190.66 87.1439 189.579L73.7789 161.701C73.5275 161.171 73.0876 160.79 72.5639 160.599C72.3335 160.557 72.103 160.514 71.8517 160.514Z" fill="#261134"/>
<path d="M75.5409 165.166L29.991 187.54L32.5778 192.938L78.1278 170.564L75.5409 165.166Z" fill="#CDCBCC"/>
<path d="M32.5308 193.055L29.8494 187.48L29.9332 187.437L75.5796 165.03L78.261 170.605L78.1772 170.647L32.5308 193.055ZM30.1427 187.586L32.6356 192.78L77.9887 170.499L75.4959 165.305L30.1427 187.586Z" fill="#261134"/>
<path d="M77.608 169.499L32.058 191.873L35.0288 198.072L80.5787 175.698L77.608 169.499Z" fill="#261134"/>
<path d="M36.0506 193.67C36.302 194.179 36.9095 194.391 37.4123 194.158L46.5876 189.642C47.0904 189.388 47.2999 188.773 47.0695 188.264C46.8181 187.755 46.2106 187.543 45.7078 187.777L36.5324 192.292C36.0087 192.546 35.7993 193.161 36.0506 193.67Z" fill="#FEFEFE"/>
<path d="M36.9727 194.348C36.5537 194.348 36.1557 194.115 35.9672 193.712C35.6948 193.14 35.9253 192.462 36.4909 192.186L45.6663 187.671C46.2319 187.395 46.9022 187.628 47.1745 188.201C47.4469 188.773 47.2164 189.451 46.6508 189.727L37.4755 194.242C37.2869 194.327 37.1193 194.348 36.9727 194.348ZM46.1481 187.777C46.0014 187.777 45.8757 187.798 45.75 187.861L36.5747 192.377C36.1138 192.61 35.9253 193.161 36.1557 193.606C36.3861 194.073 36.9308 194.264 37.3707 194.03L46.5461 189.515C47.0069 189.282 47.1955 188.731 46.9651 188.285C46.8603 188.073 46.6718 187.904 46.4413 187.819C46.3366 187.798 46.2528 187.777 46.1481 187.777Z" fill="#261134"/>
<path d="M50.8611 186.399C51.1125 186.907 51.72 187.119 52.2228 186.886L61.3981 182.371C61.9009 182.116 62.1104 181.502 61.8799 180.993C61.6286 180.484 61.0211 180.272 60.5183 180.505L51.3429 185.021C50.8192 185.275 50.6097 185.89 50.8611 186.399Z" fill="#FEFEFE"/>
<path d="M51.7831 187.077C51.3642 187.077 50.9662 186.844 50.7776 186.441C50.5053 185.869 50.7357 185.19 51.3013 184.915L60.4767 180.399C61.0423 180.124 61.7127 180.357 61.985 180.929C62.1107 181.205 62.1316 181.502 62.0269 181.798C61.9221 182.095 61.7336 182.307 61.4613 182.456L52.2859 186.971C52.1183 187.056 51.9507 187.077 51.7831 187.077ZM50.9452 186.356C51.1756 186.823 51.7203 187.013 52.1602 186.78L61.3356 182.265C61.566 182.159 61.7127 181.968 61.7964 181.735C61.8802 181.502 61.8593 181.247 61.7545 181.035C61.5241 180.569 60.9795 180.378 60.5395 180.611L51.3642 185.127C50.9243 185.339 50.7357 185.89 50.9452 186.356Z" fill="#261134"/>
<path d="M67.1922 179.991C67.702 179.74 67.9148 179.119 67.6675 178.603C67.4201 178.086 66.8063 177.871 66.2965 178.121C65.7867 178.372 65.5739 178.993 65.8212 179.509C66.0686 180.026 66.6824 180.241 67.1922 179.991Z" fill="#FEFEFE"/>
<path d="M66.7598 180.187C66.341 180.187 65.9431 179.954 65.7547 179.551C65.4825 178.979 65.7128 178.3 66.2782 178.025C66.8435 177.749 67.5136 177.982 67.7858 178.555C68.058 179.127 67.8277 179.806 67.2623 180.081C67.0948 180.145 66.9273 180.187 66.7598 180.187ZM66.7598 178.11C66.6132 178.11 66.4875 178.131 66.3619 178.194C65.9012 178.428 65.7128 178.979 65.9431 179.424C66.1735 179.89 66.7179 180.081 67.1576 179.848C67.6183 179.615 67.8067 179.064 67.5764 178.618C67.4717 178.385 67.2832 178.237 67.0529 178.152C66.9692 178.131 66.8645 178.11 66.7598 178.11Z" fill="#261134"/>
<path d="M70.1451 178.542C70.6549 178.292 70.8677 177.67 70.6203 177.154C70.373 176.638 69.7592 176.423 69.2493 176.673C68.7395 176.923 68.5267 177.545 68.7741 178.061C69.0214 178.577 69.6352 178.793 70.1451 178.542Z" fill="#FEFEFE"/>
<path d="M69.7135 178.746C69.2947 178.746 68.8969 178.512 68.7084 178.11C68.4362 177.537 68.6665 176.859 69.2319 176.583C69.5041 176.456 69.7973 176.435 70.0904 176.541C70.3836 176.647 70.593 176.838 70.7395 177.113C71.0117 177.686 70.7814 178.364 70.216 178.64C70.0485 178.703 69.881 178.746 69.7135 178.746ZM69.7135 176.668C69.5669 176.668 69.4413 176.689 69.3157 176.753C68.855 176.986 68.6665 177.537 68.8969 177.982C69.0016 178.194 69.19 178.364 69.4204 178.449C69.6507 178.534 69.902 178.512 70.1114 178.406C70.572 178.173 70.7605 177.622 70.5301 177.177C70.4254 176.965 70.237 176.795 70.0067 176.711C69.902 176.689 69.7973 176.668 69.7135 176.668Z" fill="#261134"/>
<path d="M73.079 177.103C73.5888 176.853 73.8016 176.231 73.5543 175.715C73.3069 175.199 72.6931 174.983 72.1833 175.234C71.6735 175.484 71.4607 176.106 71.708 176.622C71.9554 177.138 72.5692 177.353 73.079 177.103Z" fill="#FEFEFE"/>
<path d="M72.6463 177.304C72.5207 177.304 72.3951 177.283 72.2694 177.24C71.9763 177.134 71.7669 176.944 71.6203 176.668C71.3481 176.096 71.5784 175.417 72.1438 175.142C72.7092 174.866 73.3792 175.099 73.6514 175.672C73.7771 175.947 73.798 176.244 73.6933 176.541C73.5886 176.838 73.4002 177.05 73.1279 177.198C72.9814 177.262 72.8138 177.304 72.6463 177.304ZM72.6463 175.227C72.5207 175.227 72.3741 175.248 72.2485 175.311C71.7878 175.545 71.5994 176.096 71.8297 176.541C71.9344 176.774 72.1229 176.922 72.3532 177.007C72.5835 177.092 72.8348 177.071 73.0442 176.965C73.2745 176.859 73.4211 176.668 73.5048 176.435C73.5886 176.202 73.5677 175.947 73.463 175.735C73.3164 175.417 72.9814 175.227 72.6463 175.227Z" fill="#261134"/>
<path d="M76.0129 175.664C76.5228 175.413 76.7356 174.792 76.4882 174.276C76.2409 173.76 75.6271 173.544 75.1172 173.795C74.6074 174.045 74.3946 174.667 74.642 175.183C74.8893 175.699 75.5031 175.914 76.0129 175.664Z" fill="#FEFEFE"/>
<path d="M75.579 175.863C75.1602 175.863 74.7624 175.629 74.5739 175.227C74.3017 174.654 74.5321 173.976 75.0974 173.7C75.6628 173.425 76.3328 173.658 76.605 174.23C76.8773 174.803 76.6469 175.481 76.0816 175.757C75.914 175.82 75.7465 175.863 75.579 175.863ZM75.579 173.785C75.4324 173.785 75.3068 173.806 75.1812 173.87C74.7205 174.103 74.5321 174.654 74.7624 175.099C74.9927 175.566 75.5371 175.757 75.9769 175.523C76.4375 175.29 76.626 174.739 76.3957 174.294C76.291 174.061 76.1025 173.912 75.8722 173.827C75.7884 173.806 75.6837 173.785 75.579 173.785Z" fill="#261134"/>
<path d="M72.3902 193.671C74.5238 192.623 75.4146 190.023 74.3797 187.863C73.3448 185.703 70.7761 184.802 68.6424 185.85C66.5088 186.898 65.618 189.499 66.6529 191.658C67.6878 193.818 70.2565 194.719 72.3902 193.671Z" fill="#FEFEFE"/>
<path d="M70.5313 194.2C70.0495 194.2 69.5677 194.115 69.0859 193.946C67.9756 193.564 67.0748 192.758 66.5721 191.677C66.0693 190.617 65.9855 189.409 66.3835 188.285C66.7606 187.162 67.5567 186.25 68.625 185.741C70.8036 184.681 73.4431 185.593 74.4906 187.798C74.9933 188.858 75.0771 190.066 74.6791 191.19C74.302 192.313 73.506 193.225 72.4376 193.734C71.8511 194.03 71.2017 194.2 70.5313 194.2ZM70.5313 185.508C69.9238 185.508 69.2954 185.635 68.7088 185.932C67.7033 186.42 66.9492 187.289 66.593 188.349C66.2369 189.409 66.2998 190.575 66.7816 191.592C67.2634 192.61 68.1223 193.373 69.1697 193.734C70.2171 194.094 71.3693 194.03 72.3748 193.543C73.3803 193.055 74.1344 192.186 74.4906 191.126C74.8467 190.066 74.7838 188.9 74.302 187.883C73.5688 186.399 72.0815 185.508 70.5313 185.508Z" fill="#261134"/>
<path d="M76.81 191.503C78.9437 190.455 79.8344 187.855 78.7995 185.695C77.7646 183.535 75.196 182.634 73.0623 183.682C70.9286 184.73 70.0379 187.331 71.0728 189.49C72.1077 191.65 74.6763 192.551 76.81 191.503Z" fill="#CDCBCC"/>
<path d="M74.9514 192.016C74.4696 192.016 73.9878 191.932 73.506 191.762C72.3957 191.38 71.495 190.575 70.9922 189.494C70.4894 188.434 70.4056 187.225 70.8037 186.102C71.1807 184.978 71.9768 184.088 73.0451 183.558C75.2238 182.498 77.8632 183.409 78.9107 185.614C79.4134 186.674 79.4972 187.883 79.0992 189.006C78.7221 190.13 77.9261 191.041 76.8577 191.55C76.2502 191.868 75.6008 192.016 74.9514 192.016ZM74.9305 183.346C74.323 183.346 73.6945 183.473 73.108 183.77C72.1025 184.257 71.3483 185.127 70.9922 186.187C70.6361 187.247 70.6989 188.413 71.1807 189.43C71.6625 190.448 72.5214 191.211 73.5688 191.571C74.6163 191.932 75.7684 191.868 76.7739 191.38C77.7795 190.893 78.5336 190.024 78.8897 188.964C79.2458 187.904 79.183 186.738 78.7012 185.72C77.9889 184.236 76.5016 183.346 74.9305 183.346Z" fill="#261134"/>
<path d="M43.8224 199.182C44.0737 199.691 44.6812 199.903 45.184 199.669L59.8688 192.462C60.3715 192.207 60.581 191.593 60.3506 191.084C60.0992 190.575 59.4917 190.363 58.989 190.596L44.3042 197.804C43.8014 198.058 43.5919 198.673 43.8224 199.182Z" fill="#FEFEFE"/>
<path d="M44.7445 199.881C44.6188 199.881 44.4931 199.86 44.3675 199.818C44.0742 199.712 43.8647 199.521 43.7181 199.245C43.4457 198.673 43.6762 197.995 44.2418 197.719L58.9265 190.511C59.4921 190.236 60.1625 190.469 60.4348 191.041C60.5605 191.317 60.5815 191.614 60.4767 191.91C60.372 192.207 60.1834 192.419 59.9111 192.568L45.2263 199.775C45.0797 199.839 44.9121 199.881 44.7445 199.881ZM59.4502 190.596C59.3036 190.596 59.1779 190.617 59.0522 190.681L44.3675 197.889C43.9066 198.122 43.7181 198.673 43.9485 199.118C44.0532 199.33 44.2418 199.5 44.4722 199.585C44.7026 199.669 44.954 199.648 45.1635 199.542L59.8483 192.334C60.0787 192.228 60.2253 192.038 60.3091 191.804C60.3929 191.571 60.372 191.317 60.2672 191.105C60.1625 190.872 59.974 190.723 59.7435 190.639C59.6388 190.617 59.534 190.596 59.4502 190.596Z" fill="#261134"/>
<path d="M45.2469 202.15C45.4983 202.659 46.1058 202.871 46.6086 202.637L61.2934 195.43C61.7961 195.175 62.0056 194.56 61.7752 194.052C61.5238 193.543 60.9163 193.331 60.4135 193.564L45.7287 200.772C45.226 201.026 45.0165 201.641 45.2469 202.15Z" fill="#FEFEFE"/>
<path d="M46.169 202.849C45.75 202.849 45.352 202.616 45.1635 202.213C45.0378 201.938 45.0168 201.641 45.1216 201.344C45.2263 201.047 45.4149 200.835 45.6872 200.687L60.372 193.479C60.9376 193.204 61.6079 193.437 61.8802 194.009C62.1526 194.582 61.9221 195.26 61.3565 195.536L46.6718 202.743C46.5042 202.807 46.3366 202.849 46.169 202.849ZM45.352 202.107C45.5824 202.574 46.1271 202.765 46.567 202.531L61.2518 195.324C61.7127 195.09 61.9012 194.539 61.6708 194.094C61.4403 193.628 60.8957 193.437 60.4558 193.67L45.771 200.878C45.5406 200.984 45.3939 201.175 45.3101 201.408C45.2263 201.641 45.2473 201.895 45.352 202.107Z" fill="#261134"/>
<path d="M46.6923 205.139C46.9437 205.648 47.5512 205.86 48.0539 205.627L62.7387 198.419C63.2415 198.164 63.451 197.55 63.2205 197.041C62.9692 196.532 62.3617 196.32 61.8589 196.553L47.1741 203.761C46.6504 203.994 46.4409 204.609 46.6923 205.139Z" fill="#FEFEFE"/>
<path d="M47.5935 205.817C47.1745 205.817 46.7765 205.584 46.588 205.181C46.4623 204.906 46.4413 204.609 46.5461 204.312C46.6508 204.015 46.8393 203.803 47.1117 203.655L61.7964 196.447C62.0688 196.32 62.3621 196.299 62.6553 196.405C62.9486 196.511 63.1581 196.702 63.3047 196.977C63.4304 197.253 63.4514 197.549 63.3466 197.846C63.2419 198.143 63.0533 198.355 62.781 198.503L48.0962 205.711C47.9286 205.775 47.7611 205.817 47.5935 205.817ZM62.2992 196.532C62.1526 196.532 62.0269 196.553 61.9012 196.617L47.2164 203.825C46.7555 204.058 46.567 204.609 46.7974 205.054C47.0279 205.52 47.5725 205.711 48.0124 205.478L62.6972 198.27C63.1581 198.037 63.3466 197.486 63.1162 197.041C63.0114 196.808 62.8229 196.659 62.5925 196.574C62.4877 196.553 62.383 196.532 62.2992 196.532Z" fill="#261134"/>
<path d="M178.897 81.8644C178.897 81.8644 178.478 81.6736 177.745 81.4616L177.871 81.0588C178.646 81.292 179.065 81.4828 179.086 81.4828L178.897 81.8644Z" fill="#261134"/>
<path d="M100.153 124.178L100.09 123.754C100.949 123.648 101.787 123.521 102.583 123.394L102.646 123.818C101.85 123.945 101.012 124.072 100.153 124.178ZM105.139 123.373L105.055 122.949C105.893 122.779 106.731 122.61 107.506 122.398L107.61 122.8C106.814 123.012 105.997 123.203 105.139 123.373ZM110.061 122.164L109.936 121.762C110.753 121.507 111.549 121.253 112.324 120.956L112.47 121.359C111.695 121.656 110.878 121.91 110.061 122.164ZM114.817 120.384L114.649 120.002C115.403 119.663 116.157 119.281 116.891 118.857L117.1 119.239C116.346 119.642 115.571 120.045 114.817 120.384ZM119.237 117.903L119.006 117.543C119.677 117.098 120.347 116.631 121.059 116.08L121.311 116.419C120.598 116.971 119.907 117.458 119.237 117.903ZM123.28 114.829L123.007 114.512C123.657 113.918 124.243 113.324 124.746 112.71L125.06 112.985C124.558 113.6 123.95 114.215 123.28 114.829ZM134.026 114.554C133.796 114.554 133.544 114.554 133.293 114.533L133.314 114.109C134.173 114.151 134.99 114.109 135.807 114.024L135.849 114.448C135.262 114.533 134.655 114.554 134.026 114.554ZM130.758 114.278C129.941 114.151 129.103 113.981 128.266 113.748L128.37 113.346C129.208 113.558 130.025 113.748 130.821 113.876L130.758 114.278ZM138.363 114.003L138.258 113.6C139.075 113.388 139.85 113.091 140.583 112.752L140.751 113.134C139.997 113.473 139.18 113.77 138.363 114.003ZM125.856 113.006C125.396 112.837 124.935 112.667 124.453 112.476C124.118 112.349 123.804 112.201 123.489 112.031L123.678 111.65C123.971 111.798 124.285 111.946 124.6 112.074C125.06 112.264 125.521 112.434 125.982 112.604L125.856 113.006ZM142.971 111.819L142.72 111.48C143.39 110.992 144.019 110.441 144.605 109.848L144.898 110.144C144.312 110.759 143.663 111.31 142.971 111.819ZM126.548 110.865L126.192 110.653C126.611 109.89 126.925 109.127 127.113 108.342L127.511 108.448C127.302 109.275 126.967 110.081 126.548 110.865ZM121.394 110.547C120.913 110.102 120.452 109.593 120.075 109.063C119.949 108.894 119.844 108.724 119.74 108.554L120.096 108.342C120.2 108.512 120.305 108.682 120.41 108.83C120.787 109.339 121.206 109.826 121.667 110.25L121.394 110.547ZM146.512 108.13L146.155 107.897C146.616 107.198 147.035 106.456 147.349 105.693L147.727 105.862C147.412 106.647 146.993 107.41 146.512 108.13ZM118.734 106.159C118.566 105.502 118.483 104.866 118.483 104.23C118.483 103.997 118.504 103.763 118.525 103.551L118.944 103.594C118.923 103.806 118.902 104.018 118.902 104.23C118.902 104.823 118.985 105.438 119.132 106.053L118.734 106.159ZM127.365 105.883C127.323 105.057 127.176 104.251 126.904 103.445L127.302 103.297C127.595 104.124 127.742 104.993 127.784 105.862L127.365 105.883ZM148.648 103.467L148.25 103.318C148.564 102.513 148.879 101.707 149.214 100.965L149.591 101.135C149.298 101.877 148.962 102.661 148.648 103.467ZM119.698 101.283L119.342 101.05C119.74 100.414 120.557 99.7991 121.457 99.4811L121.604 99.8839C120.787 100.181 120.054 100.732 119.698 101.283ZM125.794 101.241C125.521 100.859 125.291 100.605 125.165 100.499C124.788 100.181 124.369 99.9263 123.929 99.7991L124.055 99.3963C124.558 99.5447 125.019 99.8203 125.437 100.181C125.626 100.329 125.877 100.647 126.129 100.986L125.794 101.241ZM150.659 98.8027L150.282 98.612C150.659 97.8276 151.036 97.0644 151.434 96.3224L151.811 96.5132C151.413 97.2764 151.036 98.0396 150.659 98.8027ZM153.047 94.3509L152.691 94.1389C153.131 93.3969 153.592 92.6761 154.074 91.9977L154.409 92.2309C153.948 92.8881 153.487 93.6089 153.047 94.3509ZM155.896 90.1746L155.561 89.9202C156.106 89.2418 156.65 88.5846 157.216 87.9698L157.53 88.2666C156.986 88.8602 156.441 89.4962 155.896 90.1746ZM159.311 86.4647L159.039 86.1467C159.667 85.5531 160.337 85.0231 161.008 84.5144L161.259 84.8535C160.589 85.3623 159.939 85.8923 159.311 86.4647ZM163.312 83.4756L163.103 83.1152C163.836 82.67 164.611 82.2884 165.365 81.9492L165.533 82.3308C164.799 82.67 164.045 83.0516 163.312 83.4756ZM167.9 81.504L167.795 81.1012C168.612 80.868 169.45 80.6984 170.288 80.5712L170.351 80.9952C169.513 81.1012 168.696 81.2708 167.9 81.504ZM175.295 80.9528C174.498 80.8468 173.702 80.7832 172.885 80.7832H172.802V80.3593H172.885C173.702 80.3593 174.54 80.4229 175.336 80.5289L175.295 80.9528Z" fill="#261134"/>
<path d="M96.3402 124.624L96.2983 124.2C96.7171 124.157 97.1359 124.115 97.5547 124.072L97.5966 124.496C97.1778 124.539 96.759 124.581 96.3402 124.624Z" fill="#261134"/>
<path d="M162.641 87.9063V77.9425L192.849 68.3392L162.641 87.9063Z" fill="#261134"/>
<path d="M162.537 88.097V77.8577L162.621 77.8365L193.582 68L162.537 88.097ZM162.746 78.0061V87.6942L192.137 68.6572L162.746 78.0061Z" fill="#261134"/>
<path d="M156.44 72.3671L162.829 78.0061L191.99 68.5724L156.44 72.3671Z" fill="#FEFEFE"/>
<path d="M162.809 78.1333L162.767 78.0909L156.211 72.2823L192.996 68.3392L162.809 78.1333ZM156.692 72.4519L162.851 77.9001L190.985 68.7844L156.692 72.4519Z" fill="#261134"/>
<path d="M164.883 81.3344L162.62 87.9274L175.441 79.5961L173.052 77.5397L164.883 81.3344Z" fill="#FEFEFE"/>
<path d="M162.432 88.1818L164.799 81.2496L173.074 77.3913L175.609 79.5961L162.432 88.1818ZM164.967 81.4192L162.809 87.673L175.253 79.5749L173.032 77.6457L164.967 81.4192Z" fill="#261134"/>
<path d="M174.121 92.9305L164.883 81.3344L192.618 68.5724L174.121 92.9305Z" fill="#FEFEFE"/>
<path d="M174.121 93.1001L174.038 92.9941L164.716 81.292L164.841 81.2284L192.954 68.2968L174.121 93.1001ZM165.051 81.3768L174.121 92.7609L192.284 68.848L165.051 81.3768Z" fill="#261134"/>
<path d="M230.724 85.9135C230.724 82.352 227.854 79.4477 224.334 79.4477C220.815 79.4477 217.945 82.352 217.945 85.9135C217.945 86.8039 218.113 87.6518 218.448 88.415C218.553 88.6482 218.657 88.8814 218.783 89.0934L224.271 100.265L229.823 89.1994C229.969 88.945 230.116 88.6694 230.221 88.3938C230.556 87.6518 230.724 86.8039 230.724 85.9135ZM224.397 88.6482C222.994 88.6482 221.862 87.5034 221.862 86.0831C221.862 84.6627 222.994 83.5179 224.397 83.5179C225.801 83.5179 226.932 84.6627 226.932 86.0831C226.932 87.5034 225.801 88.6482 224.397 88.6482Z" fill="#F27B79"/>
<path d="M224.272 100.541L218.699 89.1782C218.574 88.945 218.448 88.7118 218.364 88.4786C218.029 87.673 217.862 86.8039 217.862 85.9347C217.862 82.3096 220.773 79.3629 224.356 79.3629C227.938 79.3629 230.85 82.3096 230.85 85.9347C230.85 86.8251 230.682 87.673 230.347 88.4786C230.242 88.7542 230.095 89.0298 229.949 89.2842L224.272 100.541ZM224.335 79.5537C220.878 79.5537 218.05 82.4156 218.05 85.9135C218.05 86.7615 218.218 87.6094 218.532 88.3938C218.616 88.627 218.741 88.839 218.867 89.0722L224.272 100.075L229.739 89.1994C229.886 88.945 230.033 88.6694 230.137 88.415C230.472 87.6306 230.619 86.8039 230.619 85.9347C230.619 82.4156 227.791 79.5537 224.335 79.5537ZM224.397 88.7542C222.931 88.7542 221.758 87.5458 221.758 86.0831C221.758 84.6203 222.952 83.412 224.397 83.412C225.843 83.412 227.037 84.6203 227.037 86.0831C227.037 87.5458 225.864 88.7542 224.397 88.7542ZM224.397 83.6028C223.057 83.6028 221.967 84.7051 221.967 86.0619C221.967 87.4187 223.057 88.521 224.397 88.521C225.738 88.521 226.827 87.4187 226.827 86.0619C226.827 84.7051 225.738 83.6028 224.397 83.6028Z" fill="#261134"/>
<path d="M97.2201 236.578H244.382C246.037 236.578 247.378 235.221 247.378 233.546V140.311C247.378 138.636 246.037 137.28 244.382 137.28H97.2201C95.5652 137.28 94.2245 138.636 94.2245 140.311V233.546C94.2245 235.221 95.5652 236.578 97.2201 236.578Z" fill="#261134"/>
<path d="M236.547 140.205H98.0158V231.659H236.547V140.205Z" fill="#F3D89F"/>
<path d="M236.652 231.765H97.9114V140.099H236.652V231.765ZM98.1209 231.553H236.443V140.311H98.1209V231.553Z" fill="#261134"/>
<path d="M242.538 183.812C244.424 183.812 245.953 182.265 245.953 180.357C245.953 178.448 244.424 176.901 242.538 176.901C240.653 176.901 239.124 178.448 239.124 180.357C239.124 182.265 240.653 183.812 242.538 183.812Z" fill="#FEFEFE"/>
<path d="M242.539 183.897C240.611 183.897 239.019 182.307 239.019 180.336C239.019 178.385 240.59 176.774 242.539 176.774C244.487 176.774 246.058 178.364 246.058 180.336C246.058 182.307 244.466 183.897 242.539 183.897ZM242.539 177.007C240.716 177.007 239.229 178.512 239.229 180.357C239.229 182.201 240.716 183.706 242.539 183.706C244.361 183.706 245.849 182.201 245.849 180.357C245.849 178.512 244.361 177.007 242.539 177.007Z" fill="black"/>
<path d="M88.0446 141.922C88.0236 148.515 82.7237 153.858 76.2088 153.858C69.6938 153.858 64.3939 148.515 64.373 141.922H88.0446Z" fill="#CDCBCC"/>
<path d="M76.208 153.964C69.6512 153.964 64.2884 148.558 64.2675 141.922V141.816H88.1695V141.922C88.1276 148.558 82.7649 153.964 76.208 153.964ZM64.456 142.028C64.5398 148.494 69.7769 153.752 76.1871 153.752C82.5973 153.752 87.8344 148.494 87.9182 142.028H64.456Z" fill="#261134"/>
<path d="M111.737 141.922C111.716 148.515 106.416 153.858 99.9011 153.858C93.3861 153.858 88.0862 148.515 88.0652 141.922H111.737Z" fill="#CDCBCC"/>
<path d="M99.8805 153.964C93.3237 153.964 87.9609 148.558 87.94 141.922V141.816H111.842V141.922C111.8 148.558 106.458 153.964 99.8805 153.964ZM88.1495 142.028C88.2333 148.494 93.4704 153.752 99.8805 153.752C106.291 153.752 111.528 148.494 111.612 142.028H88.1495Z" fill="#261134"/>
<path d="M135.409 141.922C135.388 148.515 130.088 153.858 123.573 153.858C117.058 153.858 111.758 148.515 111.737 141.922H135.409Z" fill="#CDCBCC"/>
<path d="M123.573 153.964C117.016 153.964 111.654 148.558 111.633 141.922V141.816H135.535V141.922C135.493 148.558 130.13 153.964 123.573 153.964ZM111.842 142.028C111.926 148.494 117.163 153.752 123.573 153.752C129.983 153.752 135.22 148.494 135.304 142.028H111.842Z" fill="#261134"/>
<path d="M159.101 141.922C159.08 148.515 153.78 153.858 147.265 153.858C140.75 153.858 135.45 148.515 135.429 141.922H159.101Z" fill="#CDCBCC"/>
<path d="M147.266 153.964C140.709 153.964 135.346 148.558 135.325 141.922V141.816H159.227V141.922C159.185 148.558 153.822 153.964 147.266 153.964ZM135.535 142.028C135.618 148.494 140.855 153.752 147.266 153.752C153.676 153.752 158.913 148.494 158.997 142.028H135.535Z" fill="#261134"/>
<path d="M182.794 141.922C182.773 148.515 177.473 153.858 170.958 153.858C164.443 153.858 159.143 148.515 159.122 141.922H182.794Z" fill="#CDCBCC"/>
<path d="M170.958 153.964C164.401 153.964 159.039 148.558 159.018 141.922V141.816H182.92V141.922C182.878 148.558 177.515 153.964 170.958 153.964ZM159.206 142.028C159.29 148.494 164.527 153.752 170.937 153.752C177.347 153.752 182.585 148.494 182.668 142.028H159.206Z" fill="#261134"/>
<path d="M64.4148 141.965L95.8583 123.712H111.674L88.0865 141.965H64.4148Z" fill="#FEFEFE"/>
<path d="M88.1285 142.07H64.017L95.8375 123.605H111.989L88.1285 142.07ZM64.7921 141.858H88.0447L111.36 123.817H95.8794L64.7921 141.858Z" fill="#261134"/>
<path d="M128.935 123.712L111.673 141.859H88.0017L111.673 123.712H128.935Z" fill="#F27B79"/>
<path d="M111.737 141.964H87.6886L111.654 123.605H129.187L111.737 141.964ZM88.3171 141.752H111.654L128.705 123.817H111.716L88.3171 141.752Z" fill="#261134"/>
<path d="M135.366 141.859L146.113 123.712H128.935L111.674 141.859H135.366Z" fill="#FEFEFE"/>
<path d="M135.43 141.964H111.444L128.915 123.605H146.302L135.43 141.964ZM111.926 141.752H135.304L145.925 123.817H128.978L111.926 141.752Z" fill="#261134"/>
<path d="M159.101 141.922L162.369 123.67H145.966L135.408 141.922H159.101Z" fill="#F27B79"/>
<path d="M159.185 142.028H135.241L145.904 123.564H162.495L159.185 142.028ZM135.597 141.816H159.018L162.244 123.776H146.03L135.597 141.816Z" fill="#261134"/>
<path d="M253.85 141.922C253.871 148.515 259.171 153.858 265.686 153.858C272.201 153.858 277.501 148.515 277.522 141.922H253.85Z" fill="#CDCBCC"/>
<path d="M265.708 153.964C259.151 153.964 253.788 148.558 253.767 141.922V141.816H277.648V141.922C277.627 148.558 272.264 153.964 265.708 153.964ZM253.956 142.028C254.039 148.494 259.276 153.752 265.687 153.752C272.097 153.752 277.334 148.494 277.418 142.028H253.956Z" fill="#261134"/>
<path d="M230.158 141.922C230.179 148.515 235.479 153.858 241.994 153.858C248.509 153.858 253.809 148.515 253.83 141.922H230.158Z" fill="#CDCBCC"/>
<path d="M242.015 153.964C235.458 153.964 230.095 148.558 230.074 141.922V141.816H253.976V141.922C253.935 148.558 248.572 153.964 242.015 153.964ZM230.284 142.028C230.368 148.494 235.605 153.752 242.015 153.752C248.425 153.752 253.662 148.494 253.746 142.028H230.284Z" fill="#261134"/>
<path d="M206.486 141.922C206.507 148.515 211.807 153.858 218.322 153.858C224.837 153.858 230.137 148.515 230.158 141.922H206.486Z" fill="#CDCBCC"/>
<path d="M218.322 153.964C211.766 153.964 206.403 148.558 206.382 141.922V141.816H230.284V141.922C230.242 148.558 224.879 153.964 218.322 153.964ZM206.591 142.028C206.675 148.494 211.912 153.752 218.322 153.752C224.733 153.752 229.97 148.494 230.054 142.028H206.591Z" fill="#261134"/>
<path d="M182.794 141.922C182.815 148.515 188.115 153.858 194.629 153.858C201.144 153.858 206.444 148.515 206.465 141.922H182.794Z" fill="#CDCBCC"/>
<path d="M194.63 153.964C188.073 153.964 182.71 148.558 182.689 141.922V141.816H206.591V141.922C206.549 148.558 201.208 153.964 194.63 153.964ZM182.899 142.028C182.983 148.494 188.22 153.752 194.63 153.752C201.04 153.752 206.277 148.494 206.361 142.028H182.899Z" fill="#261134"/>
<path d="M277.5 141.965L246.036 123.712H230.22L253.808 141.965H277.5Z" fill="#FEFEFE"/>
<path d="M277.879 142.07H253.767L253.746 142.049L229.907 123.605H246.058L246.079 123.627L277.879 142.07ZM253.851 141.858H277.103L246.016 123.817H230.535L253.851 141.858Z" fill="#261134"/>
<path d="M212.959 123.712L230.22 141.859H253.913L230.22 123.712H212.959Z" fill="#F27B79"/>
<path d="M254.207 141.964H230.158L212.687 123.605H230.221L230.242 123.627L254.207 141.964ZM230.263 141.752H253.599L230.179 123.817H213.19L230.263 141.752Z" fill="#261134"/>
<path d="M206.528 141.859L195.781 123.712H212.959L230.22 141.859H206.528Z" fill="#FEFEFE"/>
<path d="M230.472 141.964H206.466L206.445 141.922L195.614 123.605H213.002L230.472 141.964ZM206.591 141.752H229.97L212.918 123.817H195.971L206.591 141.752Z" fill="#261134"/>
<path d="M182.794 141.922L179.337 123.67H195.844L206.486 141.922H182.794Z" fill="#F27B79"/>
<path d="M206.654 142.028H182.71L179.212 123.564H195.887L195.908 123.606L206.654 142.028ZM182.878 141.816H206.298L195.782 123.776H179.463L182.878 141.816Z" fill="#261134"/>
<path d="M182.794 141.922L179.337 123.67H162.369L159.101 141.922H182.794Z" fill="#FEFEFE"/>
<path d="M182.92 142.028H158.976L162.265 123.564H179.421L182.92 142.028ZM159.227 141.816H182.668L179.254 123.776H162.453L159.227 141.816Z" fill="#261134"/>
<path d="M223.831 167.68H192.765V202.213H223.831V167.68Z" fill="#FEFEFE"/>
<path d="M223.937 202.319H192.661V167.574H223.937V202.319ZM192.87 202.107H223.727V167.786H192.87V202.107Z" fill="#261134"/>
<path d="M204.789 176.456C205.397 176.732 207.911 177.707 211.388 176.435C211.451 176.414 211.535 176.456 211.535 176.541V181.629C211.535 181.692 211.493 181.735 211.43 181.735H204.789C204.727 181.735 204.685 181.692 204.685 181.629L204.664 176.562C204.643 176.477 204.727 176.435 204.789 176.456Z" fill="#261134"/>
<path d="M211.43 181.84H204.79C204.685 181.84 204.58 181.755 204.58 181.628L204.538 176.561C204.538 176.498 204.58 176.413 204.643 176.392C204.706 176.349 204.769 176.349 204.832 176.371C205.502 176.689 207.953 177.579 211.347 176.349C211.409 176.328 211.472 176.328 211.535 176.371C211.598 176.413 211.619 176.477 211.619 176.54V181.628C211.64 181.755 211.535 181.84 211.43 181.84ZM204.748 176.561L204.769 181.628H211.409V176.54C207.953 177.812 205.439 176.879 204.748 176.561ZM204.79 176.455L204.748 176.561L204.79 176.455Z" fill="#261134"/>
<path d="M212.331 189.005C212.331 189.005 213.65 190.51 214.782 194.454H201.396C202.527 190.51 203.847 189.005 203.847 189.005V188.984L203.763 188.327L203.113 183.303L201.773 186.037L197.772 184.193L200.097 179.487C201.856 175.607 204.789 176.413 204.789 176.413C205.25 179.317 206.423 180.186 207.345 180.398C207.512 180.441 207.701 180.462 207.869 180.462H208.329C208.518 180.462 208.686 180.441 208.853 180.398C209.754 180.165 210.948 179.296 211.409 176.413C211.409 176.413 214.342 175.607 216.101 179.487L218.427 184.193L214.425 186.037L213.085 183.303L212.435 188.327L212.352 188.963L212.331 189.005Z" fill="#31B8ED"/>
<path d="M214.908 194.56H201.27L201.312 194.433C202.339 190.787 203.533 189.239 203.742 188.985L203.051 183.685L201.815 186.208L197.605 184.279L199.972 179.488C201.752 175.566 204.748 176.35 204.79 176.35L204.853 176.371L204.874 176.435C205.313 179.276 206.466 180.124 207.345 180.336C207.492 180.378 207.66 180.399 207.848 180.399H208.309C208.498 180.399 208.665 180.378 208.812 180.336C209.692 180.124 210.844 179.254 211.284 176.435L211.305 176.371L211.368 176.35C211.389 176.35 214.405 175.566 216.186 179.488L218.553 184.279L214.342 186.208L213.106 183.685L212.415 188.985C212.624 189.239 213.819 190.787 214.845 194.433L214.908 194.56ZM201.543 194.348H214.636C213.546 190.575 212.268 189.091 212.247 189.07L212.226 189.027V188.943L213.002 182.943L214.447 185.911L218.26 184.152L215.976 179.551C214.405 176.075 211.912 176.414 211.472 176.52C211.011 179.403 209.796 180.293 208.854 180.526C208.686 180.569 208.498 180.59 208.309 180.59H207.848C207.639 180.59 207.471 180.569 207.304 180.526C206.361 180.293 205.146 179.403 204.685 176.52C204.245 176.435 201.752 176.075 200.181 179.551L197.898 184.152L201.71 185.911L203.156 182.943L203.952 189.006L203.931 189.07C203.91 189.091 202.632 190.575 201.543 194.348Z" fill="#261134"/>
<path d="M212.415 188.328L212.331 188.964H206.591C206.549 189.388 206.465 190.087 206.444 190.405C206.444 190.469 206.423 190.511 206.381 190.533C206.34 190.575 206.298 190.596 206.235 190.596C206.13 190.596 206.025 190.511 206.025 190.384C206.004 189.833 206.046 189.049 206.046 189.049C205.711 189.6 205.523 191.105 205.46 191.635C205.46 191.698 205.439 191.741 205.397 191.762C205.355 191.804 205.313 191.826 205.25 191.826C205.146 191.826 205.041 191.741 205.041 191.635C204.915 189.812 205.439 188.985 205.439 188.985H203.826L203.742 188.328H212.415Z" fill="white"/>
<path d="M205.251 191.932C205.083 191.932 204.936 191.804 204.936 191.635C204.853 190.236 205.125 189.409 205.272 189.091H203.742L203.638 188.222H212.52L212.415 189.07H206.675C206.612 189.515 206.549 190.151 206.529 190.427C206.529 190.511 206.487 190.575 206.424 190.639C206.361 190.681 206.298 190.723 206.214 190.723C206.047 190.723 205.9 190.596 205.9 190.405C205.9 190.172 205.9 189.897 205.9 189.642C205.691 190.321 205.586 191.296 205.544 191.656C205.544 191.741 205.502 191.804 205.439 191.868C205.418 191.91 205.334 191.932 205.251 191.932ZM203.931 188.879H205.628L205.523 189.049C205.523 189.049 205.02 189.875 205.146 191.635C205.146 191.72 205.272 191.762 205.314 191.699C205.334 191.677 205.355 191.656 205.355 191.635C205.418 191.041 205.607 189.557 205.942 189.006L206.151 188.667L206.13 189.07C206.13 189.07 206.089 189.854 206.11 190.405C206.11 190.469 206.151 190.511 206.214 190.511C206.256 190.511 206.277 190.49 206.277 190.49C206.298 190.469 206.298 190.448 206.319 190.427C206.34 190.13 206.424 189.409 206.487 188.985L206.508 188.9H212.247L212.31 188.476H203.889L203.931 188.879Z" fill="#261134"/>
<path d="M182.877 156.889H151.811V208.425H182.877V156.889Z" fill="#FEFEFE"/>
<path d="M183.004 208.531H151.707V156.783H182.983V208.531H183.004ZM151.916 208.319H182.773V156.995H151.916V208.319Z" fill="#261134"/>
<path d="M178.751 212.855H151.811V214.127H178.751V212.855Z" fill="#FEFEFE"/>
<path d="M178.877 214.233H151.707V212.749H178.856V214.233H178.877ZM151.916 214.021H178.646V212.961H151.916V214.021Z" fill="#261134"/>
<path d="M178.751 215.76H151.811V217.032H178.751V215.76Z" fill="#FEFEFE"/>
<path d="M178.877 217.138H151.707V215.654H178.856V217.138H178.877ZM151.916 216.926H178.646V215.866H151.916V216.926Z" fill="#261134"/>
<path d="M163.605 162.655C164.108 162.888 167.145 164.076 170.748 162.655C170.79 162.634 170.832 162.676 170.832 162.698V168.252H163.542V162.698C163.521 162.676 163.563 162.655 163.605 162.655Z" fill="#261134"/>
<path d="M170.916 168.379H163.417V162.719C163.417 162.655 163.438 162.613 163.48 162.592C163.522 162.571 163.584 162.549 163.626 162.571C164.192 162.825 167.146 163.97 170.686 162.571C170.728 162.549 170.791 162.549 170.833 162.592C170.874 162.613 170.895 162.676 170.895 162.719V168.379H170.916ZM163.626 168.167H170.707V162.783C167.25 164.118 164.339 163.079 163.626 162.783V168.167Z" fill="#261134"/>
<path d="M171.858 176.499C171.858 176.499 176.32 181.544 176.278 197.295H158.116C158.074 181.544 162.536 176.499 162.536 176.499V176.477L162.453 175.757L161.74 170.223L160.274 173.234L155.854 171.199L158.41 166.026C160.337 161.765 163.584 162.634 163.584 162.634C164.087 165.814 165.385 166.789 166.391 167.022C166.579 167.065 166.768 167.086 166.977 167.086H167.48C167.669 167.086 167.878 167.065 168.067 167.022C169.072 166.768 170.371 165.814 170.874 162.634C170.874 162.634 174.1 161.744 176.048 166.026L178.604 171.199L174.184 173.234L172.717 170.223L172.005 175.757L171.921 176.456L171.858 176.499Z" fill="#F27B79"/>
<path d="M176.363 197.401H157.991V197.295C157.949 182.392 161.992 176.965 162.39 176.456L161.636 170.584L160.275 173.382L155.666 171.262L158.264 165.984C160.212 161.68 163.522 162.528 163.543 162.549L163.605 162.571L163.626 162.634C164.108 165.75 165.386 166.704 166.35 166.938C166.517 166.98 166.706 167.001 166.915 167.001H167.418C167.607 167.001 167.795 166.98 167.984 166.938C168.968 166.704 170.225 165.75 170.707 162.634L170.728 162.571L170.791 162.549C170.833 162.549 174.121 161.701 176.091 166.005L178.688 171.262L174.08 173.382L172.718 170.584L171.964 176.456C172.362 176.965 176.405 182.371 176.363 197.295V197.401ZM158.222 197.189H176.174C176.195 181.756 171.838 176.605 171.796 176.562L171.754 176.52L171.859 175.735L172.613 169.863L174.184 173.107L178.416 171.156L175.902 166.09C174.163 162.274 171.377 162.655 170.916 162.74C170.393 165.92 169.073 166.895 168.046 167.15C167.858 167.192 167.648 167.213 167.439 167.213H166.936C166.727 167.213 166.517 167.192 166.329 167.15C165.302 166.895 163.962 165.92 163.459 162.74C162.998 162.634 160.233 162.231 158.473 166.09L155.959 171.156L160.191 173.107L161.762 169.863L162.621 176.499L162.6 176.562C162.558 176.605 158.201 181.756 158.222 197.189Z" fill="#261134"/>
<path d="M171.942 175.757L171.859 176.456H165.553C165.49 176.923 165.427 177.686 165.386 178.046C165.386 178.11 165.344 178.152 165.302 178.194C165.26 178.237 165.197 178.258 165.155 178.258C165.029 178.258 164.925 178.152 164.925 178.025C164.904 177.41 164.946 176.541 164.946 176.541C164.569 177.156 164.359 178.788 164.317 179.382C164.317 179.445 164.275 179.488 164.233 179.53C164.191 179.572 164.129 179.594 164.087 179.594C163.961 179.594 163.856 179.509 163.856 179.382C163.731 177.389 164.296 176.456 164.296 176.456H162.537L162.453 175.735H171.942V175.757Z" fill="#FEFEFE"/>
<path d="M164.087 179.721C163.92 179.721 163.773 179.572 163.752 179.403C163.647 177.834 163.961 176.944 164.129 176.583H162.453L162.328 175.651H172.069L171.943 176.562H165.637C165.575 177.05 165.512 177.77 165.47 178.067C165.47 178.152 165.428 178.237 165.365 178.279C165.302 178.343 165.218 178.364 165.135 178.364C164.946 178.364 164.799 178.216 164.799 178.025C164.799 177.749 164.799 177.389 164.799 177.113C164.569 177.876 164.443 179 164.401 179.403C164.401 179.488 164.36 179.572 164.297 179.615C164.234 179.678 164.171 179.721 164.087 179.721ZM162.621 176.371H164.485L164.38 176.541C164.38 176.541 163.815 177.452 163.961 179.403C163.961 179.509 164.108 179.551 164.171 179.488C164.192 179.466 164.213 179.445 164.213 179.403C164.276 178.746 164.485 177.134 164.862 176.52L165.072 176.18L165.051 176.583C165.051 176.583 165.009 177.452 165.03 178.046C165.03 178.152 165.156 178.194 165.239 178.131C165.26 178.11 165.281 178.088 165.281 178.046C165.323 177.728 165.386 176.922 165.449 176.456L165.47 176.371H171.775L171.838 175.884H162.558L162.621 176.371Z" fill="#261134"/>
<path d="M168.507 199.606H158.242V200.602H168.507V199.606Z" fill="#31B8ED"/>
<path d="M168.611 200.708H158.137V199.5H168.611V200.708ZM158.347 200.496H168.402V199.712H158.347V200.496Z" fill="#261134"/>
<path d="M176.677 201.726H158.242V202.722H176.677V201.726Z" fill="#31B8ED"/>
<path d="M176.781 202.828H158.137V201.62H176.781V202.828ZM158.347 202.616H176.572V201.832H158.347V202.616Z" fill="#261134"/>
<path d="M159.373 204.312L159.75 205.075L160.588 205.203L159.981 205.817L160.127 206.665L159.373 206.263L158.619 206.665L158.766 205.817L158.137 205.203L158.996 205.075L159.373 204.312Z" fill="#FAD338"/>
<path d="M158.473 206.856L158.641 205.839L157.907 205.118L158.913 204.969L159.353 204.058L159.793 204.969L160.798 205.118L160.065 205.839L160.233 206.856L159.332 206.39L158.473 206.856ZM159.374 206.135L159.981 206.453L159.856 205.754L160.358 205.266L159.667 205.16L159.353 204.524L159.039 205.16L158.347 205.266L158.85 205.754L158.724 206.453L159.374 206.135Z" fill="#261134"/>
<path d="M163.29 204.312L163.667 205.075L164.505 205.203L163.898 205.817L164.044 206.665L163.29 206.263L162.536 206.665L162.683 205.817L162.054 205.203L162.913 205.075L163.29 204.312Z" fill="#FAD338"/>
<path d="M164.192 206.856L163.291 206.39L162.39 206.856L162.558 205.839L161.825 205.118L162.83 204.969L163.27 204.058L163.71 204.969L164.716 205.118L163.982 205.839L164.192 206.856ZM163.291 206.135L163.899 206.453L163.773 205.754L164.276 205.266L163.584 205.16L163.27 204.524L162.956 205.16L162.265 205.266L162.767 205.754L162.642 206.453L163.291 206.135Z" fill="#261134"/>
<path d="M167.354 204.312L167.731 205.075L168.59 205.203L167.983 205.817L168.108 206.665L167.354 206.263L166.6 206.665L166.747 205.817L166.139 205.203L166.977 205.075L167.354 204.312Z" fill="#FAD338"/>
<path d="M166.475 206.856L166.643 205.839L165.91 205.118L166.915 204.969L167.355 204.058L167.795 204.969L168.801 205.118L168.067 205.839L168.235 206.856L167.334 206.39L166.475 206.856ZM167.355 206.135L167.963 206.453L167.837 205.754L168.34 205.266L167.648 205.16L167.334 204.524L167.02 205.16L166.329 205.266L166.831 205.754L166.706 206.453L167.355 206.135Z" fill="#261134"/>
<path d="M171.439 204.312L171.816 205.075L172.654 205.203L172.047 205.817L172.193 206.665L171.439 206.263L170.685 206.665L170.832 205.817L170.203 205.203L171.062 205.075L171.439 204.312Z" fill="#FAD338"/>
<path d="M172.341 206.856L171.44 206.39L170.539 206.856L170.707 205.839L169.974 205.118L170.979 204.969L171.419 204.058L171.859 204.969L172.865 205.118L172.131 205.839L172.341 206.856ZM171.44 206.135L172.048 206.453L171.922 205.754L172.425 205.266L171.733 205.16L171.419 204.524L171.105 205.16L170.414 205.266L170.916 205.754L170.791 206.453L171.44 206.135Z" fill="#261134"/>
<path d="M175.461 204.312L175.838 205.075L176.676 205.203L176.069 205.817L176.215 206.665L175.461 206.263L174.707 206.665L174.854 205.817L174.225 205.203L175.084 205.075L175.461 204.312Z" fill="#FAD338"/>
<path d="M176.363 206.856L175.462 206.39L174.561 206.856L174.729 205.839L173.996 205.118L175.001 204.969L175.441 204.058L175.881 204.969L176.887 205.118L176.153 205.839L176.363 206.856ZM175.462 206.135L176.07 206.453L175.944 205.754L176.447 205.266L175.755 205.16L175.441 204.524L175.127 205.16L174.436 205.266L174.938 205.754L174.813 206.453L175.462 206.135Z" fill="#261134"/>
<path d="M141.882 167.658H110.815V202.192H141.882V167.658Z" fill="#FEFEFE"/>
<path d="M141.987 202.298H110.711V167.552H141.987V202.298ZM110.92 202.086H141.777V167.764H110.92V202.086Z" fill="#261134"/>
<path d="M132.853 176.71H131.533V176.689H119.446L113.748 179.509L115.382 184.194L119.425 182.54L124.641 182.477L132.874 182.562L136.917 184.236L138.551 179.551L132.853 176.71Z" fill="#261134"/>
<path d="M136.98 184.364L132.853 182.668L124.641 182.583L119.446 182.646L115.319 184.342L113.602 179.466L119.425 176.583H131.638V176.605H132.853L138.677 179.488L136.98 184.364ZM124.641 182.371L132.895 182.456L136.854 184.088L138.425 179.594L132.811 176.817H131.429V176.795H119.488L113.874 179.572L115.445 184.067L119.425 182.434L124.641 182.371Z" fill="#261134"/>
<path d="M132.853 176.689V194.794H119.425V176.689H122.232C122.4 178.724 124.075 180.314 126.128 180.314C128.181 180.314 129.857 178.724 130.025 176.689H132.853Z" fill="#31B8ED"/>
<path d="M132.958 194.9H119.321V176.583H122.337V176.689C122.505 178.661 124.181 180.208 126.129 180.208C128.077 180.208 129.753 178.661 129.92 176.689V176.583H132.937V194.9H132.958ZM119.53 194.688H132.748V176.795H130.13C129.899 178.83 128.161 180.42 126.129 180.42C124.097 180.42 122.358 178.83 122.128 176.795H119.509V194.688H119.53Z" fill="#261134"/>
<path d="M130.926 176.689C130.821 179.254 128.726 181.311 126.149 181.311C123.573 181.311 121.478 179.254 121.373 176.689H122.253C122.421 178.724 124.096 180.314 126.149 180.314C128.202 180.314 129.878 178.724 130.046 176.689H130.926Z" fill="white"/>
<path d="M126.15 181.417C123.531 181.417 121.394 179.339 121.269 176.689V176.583H122.358V176.689C122.526 178.661 124.202 180.208 126.15 180.208C128.098 180.208 129.774 178.661 129.941 176.689V176.583H131.031V176.689C130.905 179.339 128.768 181.417 126.15 181.417ZM121.478 176.795C121.646 179.276 123.678 181.205 126.15 181.205C128.622 181.205 130.654 179.276 130.821 176.795H130.151C129.92 178.83 128.182 180.42 126.15 180.42C124.118 180.42 122.379 178.83 122.149 176.795H121.478Z" fill="#261134"/>
<path d="M132.853 188.285H119.425V189.663H132.853V188.285Z" fill="white"/>
<path d="M132.958 189.769H119.321V188.179H132.958V189.769ZM119.53 189.557H132.748V188.391H119.53V189.557Z" fill="#261134"/>
<path d="M132.853 191.232H119.425V192.61H132.853V191.232Z" fill="white"/>
<path d="M132.958 192.737H119.321V191.147H132.958V192.737ZM119.53 192.525H132.748V191.359H119.53V192.525Z" fill="#261134"/>
<path d="M182.961 221.547H151.748V228.437H182.961V221.547Z" fill="#F27B79"/>
<path d="M183.066 228.543H151.644V221.441H183.066V228.543ZM151.853 228.331H182.857V221.653H151.853V228.331Z" fill="#261134"/>
<path d="M157.353 222.749C157.549 222.749 157.707 222.581 157.707 222.375C157.707 222.166 157.549 222 157.353 222C157.158 222 157 222.166 157 222.375C157 222.581 157.158 222.749 157.353 222.749ZM157.03 227.078H157.677V223.215H157.03V227.078Z" fill="white"/>
<path d="M158.492 227.078H159.116V224.417H159.156L160.933 227.078H161.492V223.215H160.87V225.876H160.83L159.053 223.215H158.492V227.078Z" fill="white"/>
<path d="M162.31 227.078H163.665C164.748 227.078 165.367 226.368 165.367 225.132V225.126C165.367 223.916 164.741 223.215 163.665 223.215H162.31V227.078ZM162.956 226.497V223.796H163.58C164.289 223.796 164.708 224.289 164.708 225.137V225.142C164.708 226.01 164.3 226.497 163.58 226.497H162.956Z" fill="white"/>
<path d="M166.355 222.749C166.551 222.749 166.709 222.581 166.709 222.375C166.709 222.166 166.551 222 166.355 222C166.16 222 166.002 222.166 166.002 222.375C166.002 222.581 166.16 222.749 166.355 222.749ZM166.032 227.078H166.679V223.215H166.032V227.078Z" fill="white"/>
<path d="M167.494 227.078H168.14V225.624H168.857L169.566 227.078H170.306L169.516 225.52C169.945 225.354 170.198 224.931 170.198 224.42V224.414C170.198 223.678 169.732 223.215 168.955 223.215H167.494V227.078ZM168.14 225.094V223.775H168.875C169.286 223.775 169.534 224.026 169.534 224.43V224.436C169.534 224.851 169.296 225.094 168.887 225.094H168.14Z" fill="white"/>
<path d="M171.229 222.749C171.424 222.749 171.582 222.581 171.582 222.375C171.582 222.166 171.424 222 171.229 222C171.033 222 170.875 222.166 170.875 222.375C170.875 222.581 171.033 222.749 171.229 222.749ZM170.906 227.078H171.552V223.215H170.906V227.078Z" fill="white"/>
<path d="M172.367 227.078H172.951V224.331H172.994L173.996 227.078H174.437L175.44 224.331H175.485V227.078H176.067V223.215H175.325L174.239 226.186H174.197L173.109 223.215H172.367V227.078Z" fill="white"/>
</svg>
